<svg xmlns="http://www.w3.org/2000/svg" viewBox="0 0 155.49 206.77"><defs><style>.cls-1,.cls-2,.cls-3,.cls-4,.cls-5{fill:none;stroke:#aa865b;stroke-linecap:round;stroke-miterlimit:10;}.cls-2{stroke-dasharray:0 2.26;}.cls-3{stroke-dasharray:0 2.31;}.cls-4{stroke-dasharray:0 2.29;}.cls-5{stroke-dasharray:0 2.32;}.cls-6{fill:#aa865b;}.cls-7{fill:#fff;}</style></defs><title>Asset 3</title><g id="Layer_2" data-name="Layer 2"><g id="OBJECTS"><line class="cls-1" x1="9.95" y1="150.53" x2="9.95" y2="150.53"/><line class="cls-2" x1="9.95" y1="148.27" x2="9.95" y2="36.57"/><line class="cls-1" x1="9.95" y1="35.44" x2="9.95" y2="35.44"/><line class="cls-3" x1="12.26" y1="35.44" x2="52.76" y2="35.44"/><line class="cls-1" x1="53.91" y1="35.44" x2="53.91" y2="35.44"/><line class="cls-1" x1="145.69" y1="54.26" x2="145.69" y2="54.26"/><line class="cls-4" x1="145.69" y1="56.56" x2="145.69" y2="170.04"/><line class="cls-1" x1="145.69" y1="171.19" x2="145.69" y2="171.19"/><line class="cls-5" x1="143.37" y1="171.19" x2="102.79" y2="171.19"/><line class="cls-1" x1="101.63" y1="171.19" x2="101.63" y2="171.19"/><path class="cls-6" d="M68.1,124.53c.2,0,.3.12.3.37s-.1.36-.3.36c-1.22,0-2.5,0-3.82-.12s-2.6-.12-3.82-.12c-1.39,0-2.59,0-3.61.12s-2.16.12-3.43.12q-.24,0-.24-.36c0-.25.08-.37.24-.37,1.67,0,2.64-.34,2.91-1s-.11-2-1.13-4L42.79,95l3-5.26L33.61,116.58c-1.1,2.45-1.12,4.38-.06,5.81a5.83,5.83,0,0,0,5,2.14c.2,0,.3.12.3.37s-.1.36-.3.36c-1.23,0-2.35,0-3.37-.12s-2.3-.12-3.85-.12-2.86,0-3.82.12-2.13.12-3.52.12q-.24,0-.24-.36c0-.25.08-.37.24-.37a5.62,5.62,0,0,0,2.85-.7,7.8,7.8,0,0,0,2.38-2.57A42.18,42.18,0,0,0,32,116L45.23,86.8c0-.12.22-.19.55-.21s.51,0,.55.21l15.29,30.09c1,1.91,1.82,3.43,2.54,4.55a9,9,0,0,0,2,2.39A3.27,3.27,0,0,0,68.1,124.53ZM37.59,107l.92-1.71H51.1l.43,1.71Z"/><path class="cls-6" d="M78.54,127.06A13.09,13.09,0,0,1,72.91,126a7.78,7.78,0,0,1-3.34-2.79,6.82,6.82,0,0,1-1.09-3.7,8.44,8.44,0,0,1,1.31-4.37,11.25,11.25,0,0,1,3.94-3.76,15.47,15.47,0,0,1,6.41-2,5.46,5.46,0,0,1-.84-1.73,6.62,6.62,0,0,1-.28-1.86,6.53,6.53,0,0,1,1.2-3.74,10,10,0,0,1,3-2.73,15.17,15.17,0,0,1,3.89-1.7A14.83,14.83,0,0,1,91,97.06a9,9,0,0,1,2.27.3,4.35,4.35,0,0,1,2,1.06,2.86,2.86,0,0,1,.8,2.16,3.26,3.26,0,0,1-.72,2.07,2.15,2.15,0,0,1-1.76.92,1.79,1.79,0,0,1-1.32-.56,1.76,1.76,0,0,1-.56-1.27,1.87,1.87,0,0,1,.54-1.38,1.76,1.76,0,0,1,2.16-.3,1.28,1.28,0,0,1,.58.48,1.78,1.78,0,0,0,0-.44,1.55,1.55,0,0,0-.88-1.52,4.19,4.19,0,0,0-1.88-.44,11,11,0,0,0-3.71.78,13.13,13.13,0,0,0-4.12,2.54,10.08,10.08,0,0,0-1.47,1.67,11.73,11.73,0,0,0-1.28,2.22,5.81,5.81,0,0,0-.52,2.38,3.58,3.58,0,0,0,.32,1.59c.4,0,.86,0,1.38,0s1-.07,1.61-.07a2.73,2.73,0,0,1,1.64.44,1.26,1.26,0,0,1,.6,1,1,1,0,0,1-.48.76,2.54,2.54,0,0,1-1.52.36,4.78,4.78,0,0,1-2.37-.58A7,7,0,0,1,80.66,110a8.38,8.38,0,0,0-4.47,2,11,11,0,0,0-3.76,8.11,7.8,7.8,0,0,0,.66,3.2,5.46,5.46,0,0,0,2,2.37,6.08,6.08,0,0,0,3.43.9,9.72,9.72,0,0,0,3.94-.78,10.2,10.2,0,0,0,3-2,9.91,9.91,0,0,0,2-2.61,5.83,5.83,0,0,0,.7-2.58,2.32,2.32,0,0,0-.74-1.74,4.55,4.55,0,0,0-1.94-1,9.19,9.19,0,0,0-2.55-.34,10.13,10.13,0,0,0-2.78.38A6.25,6.25,0,0,0,77.86,117a3.11,3.11,0,0,0-1.15,2,.62.62,0,0,1,0,.18,1.21,1.21,0,0,0,0,.18,2.81,2.81,0,0,0,.65,1.74,6.09,6.09,0,0,0,2.06,1.58.59.59,0,0,1,.36.6c0,.29-.13.37-.4.23a9.21,9.21,0,0,1-3.21-2.53,4.46,4.46,0,0,1-1-2.62A3.69,3.69,0,0,1,77,115.22a9.91,9.91,0,0,1,5.54-1.3h7.07a9.27,9.27,0,0,0,1.89-.28,16.32,16.32,0,0,0,2.58-.82,9.54,9.54,0,0,0,2.26-1.28,2.15,2.15,0,0,0,.94-1.7,2.19,2.19,0,0,0-.36-1.11.46.46,0,0,1-.08-.28c0-.16.06-.24.2-.24a.33.33,0,0,1,.28.2A3.11,3.11,0,0,1,98,110.2a3,3,0,0,1-.77,2,7.13,7.13,0,0,1-2.1,1.62,11.89,11.89,0,0,1-2.94,1.06,13.92,13.92,0,0,1-3.29.32,3.93,3.93,0,0,1,1.48,3.11,6.13,6.13,0,0,1-.88,3A10.19,10.19,0,0,1,87,124.16a13.13,13.13,0,0,1-3.73,2.1A13.4,13.4,0,0,1,78.54,127.06Zm6.15-16c.88,0,1.32-.17,1.32-.52,0-.13-.11-.27-.34-.42a2,2,0,0,0-.9-.26,6.62,6.62,0,0,0-.8,0H81.78A3.5,3.5,0,0,0,84.69,111.08Z"/><path class="cls-6" d="M96.07,124.47l21.46-35.89c.12-.21.18-.34.15-.4s-.17-.09-.45-.09q-3.8,0-6.7.15a36.7,36.7,0,0,0-5.07.58,12.6,12.6,0,0,0-3.76,1.32,10.08,10.08,0,0,0-2.82,2.32A17,17,0,0,0,96.62,96c0,.08-.18.1-.43.06s-.34-.13-.3-.25l2.44-10.64c0-.08.19-.1.43-.06s.35.1.31.19c-.13.73,0,1.2.49,1.4a8.71,8.71,0,0,0,3,.31h22.32a.49.49,0,0,1,.46.3.4.4,0,0,1,0,.49l-21.16,35.77c-.16.21-.22.34-.18.4s.18.09.43.09h12.35a8.87,8.87,0,0,0,4.31-1.13,11.34,11.34,0,0,0,3.51-3,8.9,8.9,0,0,0,1.84-4.06c0-.13.16-.19.36-.19s.31.06.31.19l-.86,8.86a.8.8,0,0,1-.12.4.45.45,0,0,1-.43.21q-4.51-.06-9.57-.09t-10.08,0H96.38A.39.39,0,0,1,96,125,.49.49,0,0,1,96.07,124.47Z"/><path class="cls-6" d="M109.21,43.09a27.47,27.47,0,0,0-3.22-6.6,21.78,21.78,0,0,0-11-9.21,20.15,20.15,0,0,0-10.31-.49c-.66.13-.49.69.15.56a18.91,18.91,0,0,1,9,.37,18.2,18.2,0,0,1,6.53,3.7,27.59,27.59,0,0,1,6.9,9.64,20.84,20.84,0,0,1,.9,2.31c.12.39,1.18.1,1.06-.28Z"/><path class="cls-7" d="M108.19,45.91c.2,2.7-1.49,5.13-2.71,7.55A13.17,13.17,0,0,0,103.9,59a7,7,0,0,0,2,5.3,4.38,4.38,0,0,0,2.79,1.27,3,3,0,0,0,2.66-1.38c.53-.89.55-2.15,1.44-2.68a1.92,1.92,0,0,1,1.29-.19c.37.06.76.3,1.11.34.67,0,1.31-.68,1.47-1.27.1-.33,0-.57.26-.86a1.94,1.94,0,0,1,1-.52,6.47,6.47,0,0,0,1.64-.41A2.87,2.87,0,0,0,120.73,56a11.08,11.08,0,0,0-1.39-4.7,11.61,11.61,0,0,0-1.64-2.52,3.78,3.78,0,0,0-2.35-1.42,4,4,0,0,1-1,0,11.27,11.27,0,0,1-1.56-.67"/><path class="cls-6" d="M108.13,45.91a12,12,0,0,1-1.91,5.91A20.47,20.47,0,0,0,104,57.25c-.68,3.17.32,7.5,3.9,8.42a3.29,3.29,0,0,0,3.79-1.54c.37-.73.43-1.75,1.11-2.28,1-.8,1.91.34,2.93,0a2.08,2.08,0,0,0,1.13-1.16c.25-.63.35-1.2,1.15-1.41a14.43,14.43,0,0,0,1.45-.32c1.45-.59,1.68-2.33,1.53-3.71a12.85,12.85,0,0,0-2.83-6.49,4.86,4.86,0,0,0-2.2-1.65,9.37,9.37,0,0,0-1.3-.11,7.65,7.65,0,0,1-1.79-.64c-.28-.11-.47.33-.21.47a5.6,5.6,0,0,0,1.94.81,7.84,7.84,0,0,1,1.19.08,3.52,3.52,0,0,1,1.38.9,12.49,12.49,0,0,1,2.94,5.16,6.43,6.43,0,0,1,.33,3.07,2.15,2.15,0,0,1-2,1.85,2.57,2.57,0,0,0-1.69.74,1.26,1.26,0,0,0-.23.53c-.17.72-.51,1.56-1.45,1.45-.65-.08-1.11-.44-1.81-.29A1.86,1.86,0,0,0,112,62c-.35.58-.44,1.28-.74,1.88a2.76,2.76,0,0,1-2.57,1.48c-2-.07-3.59-1.85-4.21-3.66a9.12,9.12,0,0,1,0-5.52c1-3.47,4-6.5,3.74-10.29,0-.07-.11-.07-.11,0Z"/><path class="cls-6" d="M107,65.06a15.13,15.13,0,0,1-1.58-9.42s-.07-.06-.08,0c-.51,3.06-.19,6.84,1.64,9.44,0,0,0,0,0,0Z"/><path class="cls-6" d="M110,65.23a16.41,16.41,0,0,1-1.45-11.74,0,0,0,1,0-.08,0,14.71,14.71,0,0,0,1.48,11.8,0,0,0,1,0,0,0Z"/><path class="cls-6" d="M111.88,62.83a24.82,24.82,0,0,1-1.56-4.69,24,24,0,0,1-.39-4.93c0-.07-.1-.07-.1,0a16.88,16.88,0,0,0,2,9.66c0,.05.08,0,.06,0Z"/><path class="cls-6" d="M113.73,61.16c-.73-2.69-1-5.51-2.08-8.1,0-.05-.11,0-.09,0,1,2.63,1.27,5.41,2.09,8.08,0,0,.09,0,.08,0Z"/><path class="cls-6" d="M116,61.3a27.13,27.13,0,0,0-4.82-12.79c0-.06-.13,0-.09.05a32.67,32.67,0,0,1,4.86,12.74s0,0,0,0Z"/><path class="cls-6" d="M117.51,59.2a18.2,18.2,0,0,0-2.36-7.89,0,0,0,1,0-.08,0,27.64,27.64,0,0,1,2.38,7.85s.06,0,.06,0Z"/><path class="cls-6" d="M119.87,58.52a12.33,12.33,0,0,0-3.67-7.09,0,0,0,1,0,0,0,15.21,15.21,0,0,1,3.63,7.07c0,.06.09,0,.09,0Z"/><path class="cls-7" d="M109.12,43.8a3.83,3.83,0,0,0,2.53.36c2.28-.22,4.54-.53,6.79-.95a12.93,12.93,0,0,1,3.81-.35,4,4,0,0,1,3.16,1.92,1.13,1.13,0,0,1,.15.69,1.19,1.19,0,0,1-.43.67c-.69.62-2,1.14-2.31,2.08s.56,2.3,1.07,3a10.58,10.58,0,0,1,1.5,2.49,2.45,2.45,0,0,1,.14,1.11,2.55,2.55,0,0,1-.4,1,3.12,3.12,0,0,1-1.81,1.44,1.89,1.89,0,0,1-2.06-.78c-.25-.43-.3-1-.72-1.29a.83.83,0,0,0-1.16.31c-.08.16-.1.36-.18.52a1.53,1.53,0,0,1-1,.72A2.56,2.56,0,0,1,117,57a1.94,1.94,0,0,1-1-.51,5.12,5.12,0,0,1-1.29-3.4,5,5,0,0,0-.36-1.72,3.68,3.68,0,0,0-.76-1,16.52,16.52,0,0,0-1.78-1.57,6.53,6.53,0,0,1-1.61-1.34c-.28-.45-.43-1-.71-1.43-.42-.68-.85-1.35-1.28-2"/><path class="cls-6" d="M109.07,43.88c1.34.89,3.18.42,4.67.24,2.12-.25,4.21-.69,6.33-1a6.75,6.75,0,0,1,3.13.14c1,.34,3,1.61,1.64,2.85-.88.81-2.38,1.24-2.29,2.68s1.17,2.55,1.88,3.63,1.15,2.15.45,3.3c-.56.93-1.74,1.74-2.82,1.16-.82-.44-1.13-2.84-2.57-1.86-.3.2-.33.4-.48.71a1.73,1.73,0,0,1-1.55.94c-1.42.1-2.06-1.39-2.3-2.54a11.58,11.58,0,0,0-.55-2.94,7.08,7.08,0,0,0-1.89-2.08c-.8-.67-1.9-1.19-2.41-2.11a33.65,33.65,0,0,0-1.89-3.15c-.17-.25-.58,0-.42.24.6,1.07,1.2,2.13,1.78,3.2A5.85,5.85,0,0,0,111.66,49a7.12,7.12,0,0,1,2.52,2.71c.39,1.08.24,2.29.63,3.39.58,1.61,1.93,2.58,3.61,1.92a1.94,1.94,0,0,0,.86-.54c.25-.31.52-1.6,1.32-.74.26.27.3.81.54,1.12a1.94,1.94,0,0,0,.71.56c1.55.75,3.21-.5,3.78-1.92.72-1.75-.79-3.3-1.7-4.64-.47-.68-1.21-1.73-.92-2.61s1.42-1.3,2.1-1.87c1.33-1.1.18-2.55-1-3.2-2-1.07-4.28-.44-6.37-.07-1.35.24-2.7.44-4.06.61s-3.2.63-4.48,0a.09.09,0,0,0-.1.16Z"/><path class="cls-6" d="M124.79,56.2c-.14-1.2-1.37-2.17-2.22-2.92a18.7,18.7,0,0,0-3.45-2.47c-2.74-1.55-6.24-2.06-8-4.91A.08.08,0,0,0,111,46c1.32,2.52,4.4,3.19,6.77,4.3a19.17,19.17,0,0,1,3.6,2.2c1.29,1,2.81,2.19,3.38,3.74,0,0,.07,0,.07,0Z"/><path class="cls-6" d="M123.12,57.1a6.56,6.56,0,0,0-2.07-3,22.77,22.77,0,0,0-2.78-2.41c-1.07-.79-2.32-1.22-3.45-1.91A14.43,14.43,0,0,1,111.57,47c-.06-.07-.16,0-.1.1a11.83,11.83,0,0,0,2.41,2.33,29.59,29.59,0,0,0,3.26,1.8,16.62,16.62,0,0,1,3.13,2.41,9.1,9.1,0,0,1,2.79,3.5s.07,0,.06,0Z"/><path class="cls-6" d="M119.82,54.91a9,9,0,0,0-3.07-3.06,14.94,14.94,0,0,1-2-1.62A26,26,0,0,1,113,48s-.11,0-.08.07a11,11,0,0,0,3,3.33c1.44,1.07,3,2,3.94,3.56,0,0,0,0,0,0Z"/><path class="cls-6" d="M117.92,56.56a11.18,11.18,0,0,0-2.06-4.4,11,11,0,0,0-3.15-3.37,0,0,0,1,0,0,.05,13.5,13.5,0,0,1,3.13,3.52,14.43,14.43,0,0,1,2.07,4.2s0,0,0,0Z"/><path class="cls-6" d="M124.73,52.71c-1.69-1.76-4-2.65-6.25-3.5-1.26-.47-2.56-.72-3.85-1.09A7.83,7.83,0,0,1,111,46a.05.05,0,0,0-.08.06c1.23,2,4.1,2.3,6.17,2.9a19.13,19.13,0,0,1,7.58,3.78s.06,0,0,0Z"/><path class="cls-6" d="M123,49.65c-3.08-2.79-7.88-1.15-11.16-3.49a.07.07,0,0,0-.09.1c1.15,1.24,3.41,1.39,5,1.59,2.19.28,4.41.46,6.21,1.87,0,0,.1,0,.06-.07Z"/><path class="cls-6" d="M123.78,47a12.8,12.8,0,0,0-5.58-.38c-1.82.15-4.35.77-6-.34-.07-.05-.16.06-.09.13,1.12,1.16,3.52.67,4.94.54a20,20,0,0,1,6.68.15c.06,0,.09-.07,0-.1Z"/><path class="cls-6" d="M125.24,45.69a2.66,2.66,0,0,0-2.32-.75,35.32,35.32,0,0,0-3.68.62c-2.59.47-5.36,1.33-7.95.55a.08.08,0,0,0-.06.14c1.8.9,4,.26,5.92-.08l3.79-.68c1.41-.25,3-.76,4.24.26a0,0,0,1,0,.06-.06Z"/><path class="cls-7" d="M108.63,42.83c-2.31,1-1.72,4.92-3.07,6.38s-3,2.64-4.1,4.27-1.61,4-.45,5.55a1.85,1.85,0,0,0,2,.85,3.11,3.11,0,0,0,1.1-1,5.2,5.2,0,0,1,3.15-1.8,12,12,0,0,1,2.86.19,4.68,4.68,0,0,0,2.8-.33,2,2,0,0,0,1-2.4c-.36-.83-1.41-1.25-1.62-2.13-.38-1.66,2.52-2.86,1.93-4.45-.45-1.22-2.29-1.08-3.26-1.64a4.86,4.86,0,0,1-2.39-3.51"/><path class="cls-6" d="M108.58,42.76c-1.28.55-1.72,1.87-2,3.12-.17.67-.3,1.36-.51,2a5.27,5.27,0,0,1-1.68,2.21c-1.52,1.42-3.18,2.81-3.91,4.83-.56,1.56-.54,3.67.88,4.79a1.86,1.86,0,0,0,1.75.4c.9-.31,1.45-1.41,2.23-1.95a4.91,4.91,0,0,1,3.54-.78,8.45,8.45,0,0,0,3.71,0c1.39-.48,2.35-2.1,1.37-3.41-.53-.7-1.6-1.22-1.29-2.26A6,6,0,0,1,113.89,50c.84-1.07,1.07-2.4-.36-3.09-.75-.36-1.63-.38-2.36-.79A4.83,4.83,0,0,1,109,42.75a.34.34,0,0,0-.67.07,4.73,4.73,0,0,0,2.48,3.7c.94.54,3.45.5,3.32,2-.09,1.13-1.48,1.86-1.89,2.9-.57,1.46.82,2,1.44,3.05.77,1.34-.8,2.42-1.94,2.56a21.23,21.23,0,0,1-3.47-.24,5.47,5.47,0,0,0-4.45,2.1c-.42.48-.87,1-1.59.74A2.29,2.29,0,0,1,101,58.48a4.2,4.2,0,0,1-.16-3c.57-2,2.2-3.42,3.66-4.82a7.54,7.54,0,0,0,1.7-1.95,7.94,7.94,0,0,0,.52-1.74c.32-1.45.53-3.28,2-4,.1,0,0-.2-.09-.15Z"/><path class="cls-7" d="M125.45,44.79a3.28,3.28,0,0,0-3.41-.88,5.85,5.85,0,0,0-2.91,2.24,6.18,6.18,0,0,1-1.43,1.69,1.52,1.52,0,0,1-2-.14c-.24-.34-.28-.8-.56-1.1a1.44,1.44,0,0,0-1.48-.22,3.73,3.73,0,0,1-2.86-.17,4.56,4.56,0,0,1-2.14-3.5,3,3,0,0,0,3.72,1.35c1.25-.5,10.86-3.43,13.09.73"/><path class="cls-6" d="M125.51,44.74a3.32,3.32,0,0,0-3.84-.91,5.67,5.67,0,0,0-2.24,1.6c-.66.74-1.12,1.87-2.05,2.31s-1.41,0-1.77-.78a1.63,1.63,0,0,0-.48-.68,1.94,1.94,0,0,0-1.68-.11c-2.5.6-4.22-1.14-4.54-3.53l-.51.2a3.4,3.4,0,0,0,4.3,1.4,27.4,27.4,0,0,1,3.48-.92,18.23,18.23,0,0,1,5.1-.4,5.42,5.42,0,0,1,4,2,.21.21,0,0,0,.35-.19c-1-2.87-5.56-2.56-7.89-2.26a27.55,27.55,0,0,0-4.31.92c-.38.11-.75.23-1.12.36a2.78,2.78,0,0,1-3.45-1.19.27.27,0,0,0-.5.2,4.71,4.71,0,0,0,2.56,3.81,4.06,4.06,0,0,0,2.51.12c.78-.18,1.37-.26,1.78.64a2,2,0,0,0,.47.73c1.37,1.13,2.76-.57,3.47-1.57,1.38-2,4.08-3.66,6.22-1.65a.08.08,0,0,0,.12-.11Z"/><path class="cls-6" d="M101.76,59.73a7.64,7.64,0,0,1-.24-3.22,6.41,6.41,0,0,1,.94-2.18c.87-1.32,2.07-2.38,3.05-3.61a9.17,9.17,0,0,0,1.91-3.67c.14-.62.21-1.27.34-1.89a7.71,7.71,0,0,1,1-2.39.12.12,0,0,0-.19-.15c-1,1-1.13,2.68-1.38,4a10.55,10.55,0,0,1-2.68,4.81c-2,2.37-4.13,5-2.8,8.28,0,0,.07,0,.06,0Z"/><path class="cls-6" d="M103.53,59.55c-.92-3.35,2.17-5.91,3.42-8.72,1.16-2.59,1.08-5.38,1.79-8.09,0-.13-.15-.18-.2-.06a16.15,16.15,0,0,0-.72,4.33,12.87,12.87,0,0,1-1.64,5c-1.26,2.27-3.92,4.79-2.73,7.62,0,.05.09,0,.08,0Z"/><path class="cls-6" d="M106.39,57.16a6.56,6.56,0,0,1,.84-3.75,17.12,17.12,0,0,0,1.08-3.19,13.81,13.81,0,0,0,.28-3.63c0-1.3.16-2.58.17-3.88a.12.12,0,0,0-.23,0,15.51,15.51,0,0,0-.24,3.91,14.34,14.34,0,0,1-.44,4.27,26.23,26.23,0,0,1-1.23,3.26,4.38,4.38,0,0,0-.32,3.06c0,.06.09,0,.09,0Z"/><path class="cls-6" d="M108.9,56.86c-.32-2.46.63-4.77.63-7.22a14.34,14.34,0,0,0-.31-3.07,7.6,7.6,0,0,1-.15-3.61c0-.12-.15-.21-.21-.09a4.15,4.15,0,0,0-.18,2.76,19.84,19.84,0,0,1,.53,3.84,21,21,0,0,1-.47,4.11,6.1,6.1,0,0,0,0,3.31.06.06,0,0,0,.12,0Z"/><path class="cls-6" d="M111.63,57.3c-.92-2.37-.65-4.8-1-7.26s-1.58-4.63-1.54-7.1c0-.13-.21-.18-.23,0-.43,2.35,1,4.63,1.36,6.9.41,2.52.07,5.23,1.26,7.56,0,.08.19,0,.16-.06Z"/><path class="cls-6" d="M113.52,50c.46-1.19-1-2.12-1.79-2.71-1.54-1.14-2.83-2.34-2.79-4.42a.12.12,0,0,0-.24,0,3.63,3.63,0,0,0,1,3.22c1.18,1.29,3.61,1.94,3.69,3.92a.06.06,0,0,0,.12,0Z"/><path class="cls-6" d="M112.24,52a5.52,5.52,0,0,0-1.14-3.83,9.85,9.85,0,0,1-2-5.24.14.14,0,0,0-.27,0A6.9,6.9,0,0,0,110,47.25c.41.67,1,1.26,1.37,1.94a9.12,9.12,0,0,1,.71,2.84c0,.07.12,0,.13,0Z"/><path class="cls-6" d="M122,43.72c-2.18-.37-4.36.41-6.5.72-1.87.28-4.81.85-6.29-.71a.07.07,0,0,0-.11.1c1.26,1.3,3.48,1.09,5.11.91,2.55-.28,5.21-1.33,7.78-.94,0,0,0-.07,0-.08Z"/><path class="cls-6" d="M119.21,46c-3.31-.65-7.95.68-10.29-2.55-.06-.09-.21,0-.15.08,2.3,3.33,7.1,2,10.42,2.55,0,0,.08-.07,0-.08Z"/><path class="cls-6" d="M112.75,46.3a5.24,5.24,0,0,1-3.58-2.53c0-.06-.12,0-.1.06a4.76,4.76,0,0,0,3.68,2.55,0,0,0,0,0,0-.08Z"/><path class="cls-6" d="M116.63,49.78a.56.56,0,0,0-.66-.45.57.57,0,0,0-.44.66.56.56,0,0,0,.66.45A.57.57,0,0,0,116.63,49.78Z"/><path class="cls-6" d="M114.75,57.71a.56.56,0,1,0-.45.66A.57.57,0,0,0,114.75,57.71Z"/><path class="cls-6" d="M118.46,51a.26.26,0,0,0-.31-.21.25.25,0,0,0-.21.31.28.28,0,0,0,.31.21A.27.27,0,0,0,118.46,51Z"/><path class="cls-6" d="M125.44,48.64a.26.26,0,0,0-.31-.21.26.26,0,0,0,.1.52A.26.26,0,0,0,125.44,48.64Z"/><path class="cls-6" d="M121.73,60.55a.26.26,0,1,0-.52.1.26.26,0,0,0,.52-.1Z"/><path class="cls-6" d="M116.54,54.21a.27.27,0,1,0-.21.32A.28.28,0,0,0,116.54,54.21Z"/><path class="cls-6" d="M109.31,59.09a.28.28,0,0,0-.31-.21.27.27,0,0,0-.21.32.28.28,0,0,0,.31.21A.27.27,0,0,0,109.31,59.09Z"/><path class="cls-6" d="M113.88,51.57a.27.27,0,0,0-.32-.21.28.28,0,0,0-.21.31.27.27,0,0,0,.32.21A.28.28,0,0,0,113.88,51.57Z"/><path class="cls-6" d="M118.4,60.09a.27.27,0,0,0-.31-.21.26.26,0,0,0-.21.31.26.26,0,0,0,.31.21A.27.27,0,0,0,118.4,60.09Z"/><path class="cls-6" d="M136.18,33.93a58.91,58.91,0,0,0-8.25-3.1,97.32,97.32,0,0,0-21.39-4.1,94.89,94.89,0,0,0-16.08.11c-.51.05-.87.65-.14.58a94.58,94.58,0,0,1,26.55,1.37,88,88,0,0,1,15.83,4.52c.88.35,1.78.71,2.64,1.13.3.15,1.27-.3.84-.51Z"/><path class="cls-7" d="M137,36.23c1.85,1.69,2.25,4.39,3,6.79a12.28,12.28,0,0,0,2.47,4.75,6.55,6.55,0,0,0,4.71,2.3,4,4,0,0,0,2.68-.93,2.76,2.76,0,0,0,.92-2.61c-.21-.94-1-1.8-.74-2.72a1.76,1.76,0,0,1,.75-1c.29-.2.7-.28,1-.48a1.56,1.56,0,0,0,.19-1.79c-.15-.28-.36-.38-.37-.74a1.72,1.72,0,0,1,.33-1,5.84,5.84,0,0,0,.84-1.33,2.66,2.66,0,0,0-.9-2.53,10.15,10.15,0,0,0-3.92-2.28,10.44,10.44,0,0,0-2.7-.65,3.46,3.46,0,0,0-2.48.54,3.93,3.93,0,0,1-.73.62,11.27,11.27,0,0,1-1.47.54"/><path class="cls-6" d="M136.94,36.26a11.09,11.09,0,0,1,2.47,5.19,19.21,19.21,0,0,0,1.92,5.09c1.56,2.56,5,4.83,8,3.18a3.05,3.05,0,0,0,1.57-3.44c-.22-.73-.82-1.45-.71-2.24.17-1.18,1.5-1,2-1.86a1.93,1.93,0,0,0,0-1.51c-.23-.58-.53-1-.12-1.67a12.64,12.64,0,0,0,.77-1.14c.6-1.32-.35-2.63-1.33-3.46a11.74,11.74,0,0,0-6-2.57,4.42,4.42,0,0,0-2.52.28,7.72,7.72,0,0,0-.95.76,6.77,6.77,0,0,1-1.61.7.24.24,0,0,0,.16.45,5.16,5.16,0,0,0,1.82-.69,7.08,7.08,0,0,1,.84-.7,3.34,3.34,0,0,1,1.5-.27A11.54,11.54,0,0,1,150,34a6,6,0,0,1,2.17,1.86,2,2,0,0,1-.16,2.51,2.4,2.4,0,0,0-.67,1.57,1.25,1.25,0,0,0,.18.5c.34.59.65,1.37,0,1.89-.49.37-1,.41-1.4,1a1.7,1.7,0,0,0-.25,1.38,18.59,18.59,0,0,0,.7,1.74,2.58,2.58,0,0,1-.8,2.62c-1.41,1.26-3.58,1-5.15.22a8.53,8.53,0,0,1-3.5-3.73c-1.52-3-1.41-6.93-4-9.29,0,0-.12,0-.07.07Z"/><path class="cls-6" d="M148.35,49.84a14,14,0,0,1-7-5.33s-.08,0-.06.05c1.6,2.38,4.21,4.72,7.09,5.31,0,0,0,0,0,0Z"/><path class="cls-6" d="M150.44,48.1a15.14,15.14,0,0,1-8.44-7,0,0,0,0,0-.07,0,13.62,13.62,0,0,0,8.49,7s.05,0,0,0Z"/><path class="cls-6" d="M150.21,45.26a22.62,22.62,0,0,1-4-2.16A22,22,0,0,1,142.79,40c0-.05-.12,0-.08.06a15.74,15.74,0,0,0,7.48,5.24s.06,0,0-.07Z"/><path class="cls-6" d="M150.39,43c-2.2-1.34-4.18-3.05-6.54-4.13,0,0-.08.06,0,.09,2.31,1.16,4.29,2.83,6.54,4.1,0,0,.08,0,0-.06Z"/><path class="cls-6" d="M152,41.62a24.91,24.91,0,0,0-11.36-5.54c-.06,0-.09.08,0,.09A30.12,30.12,0,0,1,152,41.65a0,0,0,0,0,0,0Z"/><path class="cls-6" d="M151.68,39.24a16.75,16.75,0,0,0-6.59-3.81,0,0,0,0,0,0,.09,25.22,25.22,0,0,1,6.59,3.76s.06,0,0,0Z"/><path class="cls-6" d="M152.84,37.29a11.46,11.46,0,0,0-7-2.45s0,.07,0,.07a13.93,13.93,0,0,1,6.92,2.45,0,0,0,0,0,.05-.07Z"/><path class="cls-7" d="M136.26,34.21a3.54,3.54,0,0,0,1.93-1.36q2.1-2.38,4-5a11.92,11.92,0,0,1,2.34-2.66,3.71,3.71,0,0,1,3.34-.72,1.17,1.17,0,0,1,.55.37,1.14,1.14,0,0,1,.13.73c-.07.86-.62,2-.24,2.86s1.85,1.2,2.64,1.36a9.14,9.14,0,0,1,2.59.72,2.21,2.21,0,0,1,.8.65,2.44,2.44,0,0,1,.4,1,2.86,2.86,0,0,1-.3,2.11,1.75,1.75,0,0,1-1.88.79c-.44-.13-.85-.48-1.3-.41a.76.76,0,0,0-.59.94c.05.17.16.31.21.47a1.44,1.44,0,0,1-.19,1.1,2.35,2.35,0,0,1-.74.91,1.9,1.9,0,0,1-1,.28,4.77,4.77,0,0,1-3-1.47,4.5,4.5,0,0,0-1.33-.93,3.47,3.47,0,0,0-1.15-.19,16.13,16.13,0,0,0-2.2.07,5.72,5.72,0,0,1-1.93.12c-.47-.12-.91-.38-1.39-.51-.71-.19-1.42-.36-2.14-.54"/><path class="cls-6" d="M136.28,34.29c1.47-.25,2.4-1.73,3.29-2.8,1.27-1.51,2.4-3.14,3.64-4.68a6.42,6.42,0,0,1,2.19-1.89c.91-.43,3-.82,2.92.88-.08,1.1-.81,2.34.16,3.26s2.4,1,3.57,1.24,2.14.71,2.4,1.94a2.07,2.07,0,0,1-1.17,2.57c-.83.22-2.56-1.2-2.9.38a1.25,1.25,0,0,0,.12.78,1.61,1.61,0,0,1-.44,1.62c-.89,1-2.27.37-3.16-.25a11.05,11.05,0,0,0-2.24-1.63,6.65,6.65,0,0,0-2.59-.2,8.51,8.51,0,0,1-3,.11,32.79,32.79,0,0,0-3.26-.92.22.22,0,0,0-.13.43l3.23,1a5.33,5.33,0,0,0,2.35,0,6.55,6.55,0,0,1,3.41.22c1,.48,1.62,1.38,2.59,1.88,1.4.72,2.93.51,3.65-1a1.92,1.92,0,0,0,.23-.91c0-.36-.67-1.41.42-1.34.34,0,.71.36,1.07.41a1.72,1.72,0,0,0,.84-.07c1.51-.48,1.83-2.37,1.32-3.69-.63-1.64-2.63-1.72-4.09-2-.75-.16-1.92-.4-2.28-1.18s.12-1.77.23-2.58c.19-1.59-1.5-1.84-2.73-1.51-2,.55-3.16,2.43-4.33,4q-1.12,1.53-2.34,3c-.8,1-1.76,2.45-3,2.82a.08.08,0,0,0,0,.16Z"/><path class="cls-6" d="M154.68,32.61c-.86-.72-2.3-.6-3.35-.57a18.88,18.88,0,0,0-3.89.53c-2.83.7-5.5,2.58-8.51,1.8a.07.07,0,1,0,0,.13c2.49.86,5-.65,7.29-1.4a17.8,17.8,0,0,1,3.82-.81,8.83,8.83,0,0,1,4.65.37s.06,0,0,0Z"/><path class="cls-6" d="M154.13,34.27a5.93,5.93,0,0,0-3.27-.67,21.57,21.57,0,0,0-3.41.13c-1.22.16-2.33.66-3.53.91a13,13,0,0,1-4,.15c-.09,0-.09.12,0,.14a10.73,10.73,0,0,0,3.1,0,29,29,0,0,0,3.33-.85,14.86,14.86,0,0,1,3.64-.37,8.25,8.25,0,0,1,4.1.58s.06,0,0,0Z"/><path class="cls-6" d="M150.52,34.9a8.24,8.24,0,0,0-4-.12,14.73,14.73,0,0,1-2.39.2,26.06,26.06,0,0,1-2.63-.39c-.05,0-.07.08,0,.09a10.13,10.13,0,0,0,4.13.35,12.68,12.68,0,0,1,4.91-.1s0,0,0,0Z"/><path class="cls-6" d="M150.28,37.21a14,14,0,0,0-8.44-1.92,0,0,0,1,0,0,.05,12.23,12.23,0,0,1,4.34.38,13.42,13.42,0,0,1,4.06,1.51s0,0,0,0Z"/><path class="cls-6" d="M152.42,30.3A14.81,14.81,0,0,0,146,31.91c-1.14.48-2.18,1.14-3.28,1.71a7.18,7.18,0,0,1-3.77.87.05.05,0,0,0,0,.1c2.12.59,4.22-1.06,6-2a17.55,17.55,0,0,1,7.5-2.27s0-.05,0-.05Z"/><path class="cls-6" d="M149.33,29.32c-3.84.08-6,4.23-9.73,4.74a.06.06,0,0,0,0,.12c1.56.11,3.17-1.23,4.36-2.09,1.65-1.2,3.26-2.49,5.36-2.68,0,0,0-.09,0-.09Z"/><path class="cls-6" d="M148.18,27.07a11.76,11.76,0,0,0-4,3.29c-1.13,1.26-2.43,3.28-4.23,3.57a.07.07,0,0,0,0,.14c1.51.07,2.81-1.79,3.67-2.77a18.28,18.28,0,0,1,4.59-4.14,0,0,0,0,0,0-.09Z"/><path class="cls-6" d="M148.31,25.24a2.48,2.48,0,0,0-2,1A33.15,33.15,0,0,0,144.18,29c-1.44,2-2.75,4.3-5,5.42-.07,0,0,.16.05.13,1.78-.54,2.89-2.4,3.93-3.81.71-1,1.42-1.91,2.12-2.87s1.54-2.42,3-2.51a0,0,0,0,0,0-.09Z"/><path class="cls-7" d="M135.32,33.87c-.94,2.12,2,4.41,2,6.24a38.57,38.57,0,0,0,0,5.48c.28,1.81,1.42,3.68,3.22,4a1.71,1.71,0,0,0,1.89-.7,2.87,2.87,0,0,0,.12-1.37,4.79,4.79,0,0,1,1-3.21,10.68,10.68,0,0,1,2-1.68,4.29,4.29,0,0,0,1.67-2,1.85,1.85,0,0,0-.82-2.27c-.77-.33-1.75.05-2.44-.41-1.31-.86-.12-3.52-1.53-4.22-1.08-.53-2.23.74-3.24,1a4.46,4.46,0,0,1-3.83-.84"/><path class="cls-6" d="M135.24,33.85c-.51,1.18,0,2.35.62,3.4.31.56.66,1.09.93,1.67a4.94,4.94,0,0,1,.27,2.56c-.12,1.92-.35,3.91.44,5.73.62,1.4,2,2.81,3.63,2.66a1.73,1.73,0,0,0,1.43-.84c.42-.79.09-1.88.26-2.73a4.67,4.67,0,0,1,1.89-2.78,7.78,7.78,0,0,0,2.5-2.34A2.08,2.08,0,0,0,146,38c-.8-.14-1.86.19-2.3-.71a5.49,5.49,0,0,1-.28-2c-.11-1.25-.81-2.29-2.2-1.84-.74.23-1.34.78-2.09,1a4.45,4.45,0,0,1-3.61-.84c-.29-.2-.66.22-.41.47a4.36,4.36,0,0,0,4,.92c1-.24,2.64-1.86,3.52-.76.65.83.19,2.2.57,3.15.54,1.35,1.8.82,2.9,1.14,1.38.41,1,2.14.32,3a18.91,18.91,0,0,1-2.49,2,5.09,5.09,0,0,0-1.65,4.23c0,.6,0,1.21-.6,1.51a2.11,2.11,0,0,1-1.58,0,3.94,3.94,0,0,1-2-1.94c-.89-1.73-.69-3.7-.6-5.57a6.85,6.85,0,0,0-.09-2.39,7.13,7.13,0,0,0-.76-1.51c-.7-1.17-1.73-2.54-1.21-4,0-.1-.11-.14-.15,0Z"/><path class="cls-7" d="M147.88,24.51A3,3,0,0,0,145,26.09a5.35,5.35,0,0,0-.53,3.35,5.86,5.86,0,0,1,.11,2,1.4,1.4,0,0,1-1.45,1.18c-.37-.07-.69-.35-1.07-.38a1.37,1.37,0,0,0-1.14.8,3.39,3.39,0,0,1-2,1.7,4.21,4.21,0,0,1-3.66-1,2.75,2.75,0,0,0,3.36-1.45c.52-1.13,5.12-9.21,9.27-7.82"/><path class="cls-6" d="M147.88,24.44a3.07,3.07,0,0,0-3.16,1.82,5.38,5.38,0,0,0-.49,2.5c0,.92.43,2,.1,2.86s-1,.89-1.69.59a1.53,1.53,0,0,0-.76-.15,1.83,1.83,0,0,0-1.2,1c-1.3,2-3.56,1.92-5.29.52l-.22.45A3.13,3.13,0,0,0,139,32.24a25.71,25.71,0,0,1,1.76-2.83,16.83,16.83,0,0,1,3.17-3.51,5,5,0,0,1,4-1.2c.18,0,.28-.27.11-.35-2.49-1.3-5.37,1.8-6.75,3.49a25.56,25.56,0,0,0-2.31,3.35c-.19.32-.35.63-.52.95a2.58,2.58,0,0,1-3.08,1.4.26.26,0,0,0-.21.46,4.39,4.39,0,0,0,4.14.93A3.72,3.72,0,0,0,141,33.41c.42-.61.77-1,1.62-.7a1.62,1.62,0,0,0,.77.19c1.64-.1,1.5-2.14,1.34-3.25-.31-2.2.41-5.06,3.13-5.07a.07.07,0,1,0,0-.14Z"/><path class="cls-6" d="M141.43,49.6a7.09,7.09,0,0,1-2.21-2,5.92,5.92,0,0,1-.75-2.07c-.26-1.44-.12-2.91-.24-4.36a8.58,8.58,0,0,0-1-3.68c-.31-.51-.67-1-1-1.49a7,7,0,0,1-.85-2.23.12.12,0,0,0-.23,0c0,1.35,1,2.52,1.64,3.59A9.77,9.77,0,0,1,138,42.31c.13,2.89.39,6,3.37,7.34a0,0,0,0,0,0,0Z"/><path class="cls-6" d="M142.51,48.36c-2.75-1.67-2.3-5.35-3.24-8-.86-2.48-2.69-4.31-3.94-6.58a.09.09,0,0,0-.17.08,14.73,14.73,0,0,0,2.26,3.37,12.09,12.09,0,0,1,2.05,4.37c.59,2.33.4,5.72,3,6.87,0,0,.06,0,0-.07Z"/><path class="cls-6" d="M142.91,44.94a6.17,6.17,0,0,1-1.82-3.06A16.16,16.16,0,0,0,139.8,39a13,13,0,0,0-2.12-2.61c-.84-.86-1.54-1.84-2.35-2.72-.08-.09-.24,0-.18.12a14.4,14.4,0,0,0,2.32,2.79,13,13,0,0,1,2.42,3.14,23.42,23.42,0,0,1,1.24,3A4.09,4.09,0,0,0,142.86,45s.09,0,0-.06Z"/><path class="cls-6" d="M144.41,43.13c-1.78-1.45-2.61-3.6-4.16-5.25A13.74,13.74,0,0,0,138.09,36a7,7,0,0,1-2.39-2.33c-.06-.09-.24,0-.2.07a3.83,3.83,0,0,0,1.62,2A19,19,0,0,1,139.93,38,19.52,19.52,0,0,1,142.22,41a5.48,5.48,0,0,0,2.12,2.2c.07,0,.13,0,.07-.1Z"/><path class="cls-6" d="M146.52,41.7c-2.12-1-3.48-2.82-5.29-4.24s-4-2.11-5.55-3.8c-.08-.09-.24,0-.17.12,1.2,1.86,3.6,2.49,5.3,3.78,1.87,1.43,3.36,3.47,5.65,4.28a.08.08,0,0,0,.06-.14Z"/><path class="cls-6" d="M143.16,35.59c-.44-1.09-2-.79-2.92-.68-1.76.21-3.39.22-4.68-1.2a.12.12,0,0,0-.19.13,3.41,3.41,0,0,0,2.73,1.53c1.61.12,3.67-1,5,.28a.05.05,0,0,0,.09-.06Z"/><path class="cls-6" d="M143.58,37.76a5.08,5.08,0,0,0-3.21-1.86,8.94,8.94,0,0,1-4.67-2.25.12.12,0,0,0-.19.16A6.37,6.37,0,0,0,139.06,36c.71.19,1.46.22,2.16.43a8.56,8.56,0,0,1,2.28,1.45.06.06,0,0,0,.08-.08Z"/><path class="cls-6" d="M144.9,26c-1.7,1.13-2.67,3-3.91,4.61-1.08,1.37-2.7,3.62-4.69,3.51a.07.07,0,0,0,0,.14c1.67.08,3-1.47,4-2.63,1.54-1.81,2.66-4.2,4.63-5.58,0,0,0-.07,0-.05Z"/><path class="cls-6" d="M144.46,29.3c-2.63,1.67-4.92,5.51-8.54,4.82-.1,0-.15.13,0,.15,3.67.79,6-3.17,8.63-4.9,0,0,0-.1,0-.07Z"/><path class="cls-6" d="M140.29,33.58a4.83,4.83,0,0,1-4,.59,0,0,0,1,0,0,.09,4.38,4.38,0,0,0,4.09-.62s0-.08-.05-.06Z"/><path class="cls-6" d="M145.11,33.46a.53.53,0,0,0-.73.12.53.53,0,0,0,.12.73.53.53,0,0,0,.73-.12A.52.52,0,0,0,145.11,33.46Z"/><path class="cls-6" d="M148.88,40a.54.54,0,0,0-.73.12.53.53,0,0,0,.12.73.52.52,0,0,0,.73-.12A.53.53,0,0,0,148.88,40Z"/><path class="cls-6" d="M147.12,33.13a.24.24,0,0,0-.34,0,.25.25,0,1,0,.4.29A.24.24,0,0,0,147.12,33.13Z"/><path class="cls-6" d="M150.31,27.1a.24.24,0,1,0,.06.34A.24.24,0,0,0,150.31,27.1Z"/><path class="cls-6" d="M155.38,37.47a.24.24,0,1,0,.06.34A.24.24,0,0,0,155.38,37.47Z"/><path class="cls-6" d="M147.86,36.51a.24.24,0,0,0-.34.05.25.25,0,0,0,.06.35.24.24,0,0,0,.34-.06A.23.23,0,0,0,147.86,36.51Z"/><path class="cls-6" d="M146.1,44.38a.24.24,0,1,0,.06.34A.24.24,0,0,0,146.1,44.38Z"/><path class="cls-6" d="M144.4,36.42a.25.25,0,1,0-.29.4.25.25,0,0,0,.29-.4Z"/><path class="cls-6" d="M152.85,39.28a.24.24,0,0,0-.34,0,.25.25,0,1,0,.4.29A.24.24,0,0,0,152.85,39.28Z"/><path class="cls-6" d="M95.36,20.4a33.54,33.54,0,0,0-4.24.6,36.35,36.35,0,0,0-8.89,2.8,22.87,22.87,0,0,0-4.82,3.06c-.19.16-.1.33.1.39a.89.89,0,0,0,.75-.2c4.27-3.61,10.12-5.23,15.58-5.91.46-.05.92-.11,1.38-.14s.87-.65.14-.6Z"/><path class="cls-7" d="M98.07,21.42c2.71,0,5,1.83,7.34,3.21a13.23,13.23,0,0,0,5.44,2A7.11,7.11,0,0,0,116.28,25a4.41,4.41,0,0,0,1.45-2.71,3,3,0,0,0-1.19-2.74c-.85-.59-2.11-.7-2.58-1.62a1.93,1.93,0,0,1-.09-1.3c.08-.37.35-.74.4-1.09.11-.66-.58-1.35-1.16-1.55-.32-.12-.57-.05-.83-.32a1.94,1.94,0,0,1-.46-1,6.23,6.23,0,0,0-.3-1.67A2.87,2.87,0,0,0,109,9.6a11,11,0,0,0-4.78,1.06,11,11,0,0,0-2.62,1.46A3.75,3.75,0,0,0,100,14.37a4,4,0,0,1-.13,1,10.72,10.72,0,0,1-.77,1.51"/><path class="cls-6" d="M98.06,21.47a12.08,12.08,0,0,1,5.77,2.31,20.44,20.44,0,0,0,5.26,2.64c3.11.89,7.5.19,8.67-3.32a3.29,3.29,0,0,0-1.28-3.88c-.7-.43-1.72-.56-2.2-1.27-.73-1.06.47-1.88.19-2.92a2,2,0,0,0-1.08-1.21c-.61-.3-1.17-.43-1.33-1.24a10.43,10.43,0,0,0-.22-1.47c-.49-1.49-2.2-1.84-3.59-1.78a12.88,12.88,0,0,0-6.67,2.37,4.87,4.87,0,0,0-1.79,2.08,7,7,0,0,0-.2,1.3,7.7,7.7,0,0,1-.77,1.74c-.12.26.3.48.46.24a5.49,5.49,0,0,0,.94-1.89,7.66,7.66,0,0,1,.16-1.17,3.46,3.46,0,0,1,1-1.32,12.47,12.47,0,0,1,5.35-2.58,6.47,6.47,0,0,1,3.09-.11,2.12,2.12,0,0,1,1.7,2.1,2.68,2.68,0,0,0,.63,1.75,1.37,1.37,0,0,0,.51.26c.7.22,1.52.61,1.35,1.54-.13.65-.52,1.08-.42,1.79a1.88,1.88,0,0,0,.82,1.28c.56.39,1.24.53,1.83.87a2.77,2.77,0,0,1,1.29,2.66c-.2,2-2.09,3.46-3.93,4a9.27,9.27,0,0,1-5.51-.4c-3.39-1.25-6.21-4.48-10-4.44-.07,0-.08.11,0,.11Z"/><path class="cls-6" d="M117.09,23.89a15,15,0,0,1-9.5.93s-.07.07,0,.08c3,.73,6.8.67,9.53-1,0,0,0,0,0,0Z"/><path class="cls-6" d="M117.46,21a16.34,16.34,0,0,1-11.81.64c-.06,0-.09.06,0,.08A14.67,14.67,0,0,0,117.49,21s0-.06,0-.05Z"/><path class="cls-6" d="M115.2,18.89a24.62,24.62,0,0,1-4.79,1.24,23.3,23.3,0,0,1-4.94,0,.06.06,0,0,0,0,.11A16.94,16.94,0,0,0,115.24,19s0-.08,0-.07Z"/><path class="cls-6" d="M113.66,16.94c-2.73.54-5.56.63-8.22,1.51,0,0,0,.11,0,.09,2.69-.77,5.49-.89,8.2-1.53a0,0,0,1,0,0-.07Z"/><path class="cls-6" d="M114,14.69a27.07,27.07,0,0,0-13.09,3.93.05.05,0,1,0,0,.09,32.67,32.67,0,0,1,13-4,0,0,0,0,0,0-.05Z"/><path class="cls-6" d="M112,13a18.08,18.08,0,0,0-8,1.81,0,0,0,1,0,0,.08,27.72,27.72,0,0,1,8-1.83,0,0,0,0,0,0-.06Z"/><path class="cls-6" d="M111.45,10.63a12.29,12.29,0,0,0-7.33,3.17,0,0,0,1,0,0,0,15.12,15.12,0,0,1,7.3-3.13c.06,0,0-.09,0-.09Z"/><path class="cls-7" d="M96,20.34a3.77,3.77,0,0,0,.53-2.5c0-2.28-.21-4.57-.47-6.83A13,13,0,0,1,96,7.17a4,4,0,0,1,2.13-3,1.1,1.1,0,0,1,.71-.11,1.23,1.23,0,0,1,.63.48c.57.73,1,2.06,1.91,2.45s2.34-.41,3.09-.86a10.25,10.25,0,0,1,2.59-1.33,2.45,2.45,0,0,1,1.11-.07,2.78,2.78,0,0,1,1,.48,3.1,3.1,0,0,1,1.31,1.9,1.9,1.9,0,0,1-.92,2c-.45.21-1,.23-1.33.62a.82.82,0,0,0,.22,1.18c.16.09.35.13.51.22a1.51,1.51,0,0,1,.65,1,2.36,2.36,0,0,1,.08,1.26,1.92,1.92,0,0,1-.58.95,5.06,5.06,0,0,1-3.47,1.05,5.06,5.06,0,0,0-1.74.24,4,4,0,0,0-1.06.69A17.75,17.75,0,0,0,101.17,18a6.47,6.47,0,0,1-1.44,1.51c-.47.25-1,.36-1.48.61-.7.37-1.4.76-2.1,1.14"/><path class="cls-6" d="M96.1,20.39c1-1.27.63-3.14.56-4.64-.1-2.13-.4-4.25-.54-6.38a6.88,6.88,0,0,1,.35-3.12c.41-1,1.82-2.87,3-1.43.74.93,1.07,2.45,2.52,2.47s2.62-1,3.75-1.63,2.22-1,3.32-.22c.89.62,1.62,1.85,1,2.89-.5.79-2.91.93-2,2.44.18.31.38.36.67.53a1.72,1.72,0,0,1,.84,1.61c0,1.42-1.53,2-2.7,2.12a11.82,11.82,0,0,0-3,.34,7,7,0,0,0-2.2,1.75c-.73.74-1.32,1.81-2.28,2.26A32.23,32.23,0,0,0,96.05,21c-.27.16-.08.58.2.44,1.11-.53,2.21-1.05,3.32-1.56a5.94,5.94,0,0,0,1.85-1.75,7.1,7.1,0,0,1,2.87-2.33c1.1-.31,2.3-.09,3.42-.4,1.65-.46,2.71-1.75,2.17-3.47a2,2,0,0,0-.48-.89c-.29-.27-1.56-.63-.65-1.37.29-.24.83-.25,1.16-.46a2.18,2.18,0,0,0,.61-.67c.85-1.49-.28-3.23-1.66-3.91-1.7-.83-3.35.57-4.74,1.39-.72.42-1.82,1.08-2.68.73s-1.2-1.5-1.71-2.22c-1-1.41-2.54-.36-3.27.8-1.2,1.91-.73,4.25-.5,6.35.14,1.36.25,2.73.33,4.1s.41,3.24-.34,4.47a.09.09,0,0,0,.15.1Z"/><path class="cls-6" d="M109.48,5.56c-1.21.06-2.27,1.22-3.08,2a20.15,20.15,0,0,0-2.7,3.27c-1.73,2.63-2.48,6.08-5.44,7.67a.07.07,0,1,0,.06.13c2.61-1.14,3.49-4.17,4.76-6.45a19.9,19.9,0,0,1,2.44-3.45c1.08-1.21,2.38-2.64,4-3.11a0,0,0,0,0,0-.07Z"/><path class="cls-6" d="M110.26,7.29a6.54,6.54,0,0,0-3.1,1.86,23.73,23.73,0,0,0-2.6,2.61c-.85,1-1.37,2.23-2.14,3.3a14.23,14.23,0,0,1-3,3c-.08.06,0,.16.09.11A11.83,11.83,0,0,0,102,16a30.2,30.2,0,0,0,2-3.12,16.39,16.39,0,0,1,2.62-3,9.11,9.11,0,0,1,3.68-2.54s0-.07,0-.06Z"/><path class="cls-6" d="M107.85,10.43a9,9,0,0,0-3.27,2.85,15.86,15.86,0,0,1-1.75,1.91,27.68,27.68,0,0,1-2.38,1.62s0,.11.06.08A11,11,0,0,0,104,14.14c1.17-1.35,2.2-2.83,3.82-3.68,0,0,0,0,0,0Z"/><path class="cls-6" d="M109.35,12.44a11.16,11.16,0,0,0-4.52,1.75,11,11,0,0,0-3.58,2.91s0,.07,0,0A13.41,13.41,0,0,1,105,14.25a14.52,14.52,0,0,1,4.34-1.78s0,0,0,0Z"/><path class="cls-6" d="M106,5.38c-1.88,1.57-2.93,3.81-3.92,6-.56,1.22-.9,2.5-1.36,3.76a7.79,7.79,0,0,1-2.35,3.46s0,.11,0,.08c2.13-1.08,2.58-3.94,3.32-5.95a18.94,18.94,0,0,1,4.3-7.3s0-.07,0,0Z"/><path class="cls-6" d="M102.82,6.88c-3,2.87-1.69,7.78-4.26,10.89,0,.06,0,.14.1.09,1.32-1.06,1.62-3.3,1.93-4.86.43-2.16.76-4.36,2.29-6.06,0,0,0-.1-.06-.06Z"/><path class="cls-6" d="M100.26,5.93a12.55,12.55,0,0,0-.77,5.54c0,1.84.47,4.4-.75,5.94,0,.07.05.16.12.1,1.24-1,.92-3.47.88-4.89A19.86,19.86,0,0,1,100.36,6a.05.05,0,0,0-.1,0Z"/><path class="cls-6" d="M99,4.38a2.69,2.69,0,0,0-.91,2.27c0,1.24.23,2.49.36,3.72.29,2.61,1,5.43,0,8,0,.08.09.15.13.08,1-1.75.54-4,.33-5.92-.14-1.28-.27-2.55-.41-3.83S98,5.6,99.08,4.45A0,0,0,0,0,99,4.38Z"/><path class="cls-7" d="M95,20.76c.81,2.37,4.79,2.06,6.15,3.5s2.44,3.16,4,4.39,3.82,1.88,5.5.83a1.85,1.85,0,0,0,1-1.94,3.24,3.24,0,0,0-.91-1.18,5.14,5.14,0,0,1-1.57-3.26,11.42,11.42,0,0,1,.38-2.84,4.67,4.67,0,0,0-.14-2.82,2,2,0,0,0-2.32-1.2c-.85.3-1.35,1.32-2.24,1.47-1.67.27-2.68-2.71-4.3-2.23-1.25.37-1.23,2.21-1.86,3.14A4.86,4.86,0,0,1,95,20.76"/><path class="cls-6" d="M95,20.8c.46,1.32,1.75,1.85,3,2.25.65.21,1.32.38,2,.65A5.24,5.24,0,0,1,102,25.52c1.32,1.61,2.59,3.37,4.55,4.23,1.52.67,3.62.8,4.84-.54a1.87,1.87,0,0,0,.52-1.72c-.25-.93-1.31-1.55-1.8-2.36a5,5,0,0,1-.53-3.59,8.44,8.44,0,0,0,.27-3.7,2.26,2.26,0,0,0-3.31-1.59c-.73.47-1.33,1.51-2.34,1.12A5.82,5.82,0,0,1,102.5,16c-1-.91-2.31-1.22-3.1.15-.41.73-.49,1.6-1,2.3a4.86,4.86,0,0,1-3.49,2,.34.34,0,0,0,0,.67,4.71,4.71,0,0,0,3.86-2.22c.61-.9.73-3.41,2.24-3.18,1.13.18,1.76,1.61,2.77,2.09,1.41.67,2-.68,3.14-1.22,1.39-.69,2.36,1,2.42,2.11a20.06,20.06,0,0,1-.48,3.44,5.49,5.49,0,0,0,1.79,4.58c.45.46.9.94.63,1.64a2.33,2.33,0,0,1-1.25,1.16,4.2,4.2,0,0,1-3-.05c-2-.71-3.27-2.42-4.57-4a7.36,7.36,0,0,0-1.82-1.83A8,8,0,0,0,99,23c-1.43-.41-3.24-.74-3.88-2.26,0-.11-.19,0-.15.07Z"/><path class="cls-7" d="M98.14,4.12A3.3,3.3,0,0,0,97,7.46a5.77,5.77,0,0,0,2,3.05,6.69,6.69,0,0,1,1.59,1.55,1.52,1.52,0,0,1-.29,2c-.35.22-.81.22-1.13.48A1.46,1.46,0,0,0,98.91,16a3.7,3.7,0,0,1-.37,2.84,4.57,4.57,0,0,1-3.64,1.89,3,3,0,0,0,1.6-3.62c-.4-1.28-2.67-11.07,1.64-13"/><path class="cls-6" d="M98.09,4.06a3.31,3.31,0,0,0-1.17,3.76,5.72,5.72,0,0,0,1.44,2.35c.69.7,1.79,1.25,2.17,2.2s-.12,1.41-.91,1.71a1.62,1.62,0,0,0-.71.43,2,2,0,0,0-.23,1.67c.44,2.54-1.42,4.14-3.83,4.29.06.17.11.34.17.52a3.4,3.4,0,0,0,1.69-4.19A28.34,28.34,0,0,1,96,13.26a18.61,18.61,0,0,1,0-5.11,5.44,5.44,0,0,1,2.29-3.88.21.21,0,0,0-.17-.36c-2.93.8-2.94,5.37-2.8,7.72A27.75,27.75,0,0,0,95.92,16c.08.39.18.76.28,1.14a2.77,2.77,0,0,1-1.42,3.36A.28.28,0,0,0,95,21a4.72,4.72,0,0,0,4-2.3,4.09,4.09,0,0,0,.29-2.49c-.12-.79-.16-1.39.77-1.74a1.7,1.7,0,0,0,.75-.42c1.23-1.28-.38-2.79-1.32-3.56C97.55,9,96,6.18,98.19,4.18a.08.08,0,0,0-.1-.12Z"/><path class="cls-6" d="M111.41,28.78a7.81,7.81,0,0,1-3.23,0,6.42,6.42,0,0,1-2.11-1.09c-1.26-1-2.23-2.23-3.39-3.29a9.24,9.24,0,0,0-3.53-2.17c-.61-.18-1.25-.28-1.87-.46A7.69,7.69,0,0,1,95,20.64a.12.12,0,0,0-.16.18c1,1.1,2.6,1.31,3.94,1.65a10.63,10.63,0,0,1,4.61,3c2.23,2.2,4.69,4.47,8.06,3.36a0,0,0,1,0,0,0Z"/><path class="cls-6" d="M111.36,27c-3.41.68-5.75-2.57-8.47-4-2.51-1.33-5.3-1.44-8-2.34a.11.11,0,0,0-.08.2,16.43,16.43,0,0,0,4.27,1,12.92,12.92,0,0,1,4.83,2c2.18,1.41,4.51,4.24,7.42,3.25,0,0,0-.09,0-.08Z"/><path class="cls-6" d="M109.16,24a6.62,6.62,0,0,1-3.68-1.1,17.67,17.67,0,0,0-3.11-1.31,14,14,0,0,0-3.6-.52c-1.3-.07-2.57-.34-3.86-.44-.12,0-.18.19,0,.23a15.44,15.44,0,0,0,3.89.51,14.24,14.24,0,0,1,4.23.73,25.79,25.79,0,0,1,3.16,1.45,4.38,4.38,0,0,0,3,.53,0,0,0,1,0,0-.08Z"/><path class="cls-6" d="M109,21.45c-2.47.15-4.7-.94-7.15-1.11a14.51,14.51,0,0,0-3.09.09,7.56,7.56,0,0,1-3.6-.1c-.12,0-.23.14-.11.2a4.15,4.15,0,0,0,2.73.38,20.21,20.21,0,0,1,3.88-.27,21.51,21.51,0,0,1,4.06.75,6,6,0,0,0,3.3.19.07.07,0,0,0,0-.13Z"/><path class="cls-6" d="M109.66,18.77c-2.42.75-4.83.31-7.31.5s-4.72,1.26-7.19,1.05c-.13,0-.19.2,0,.23,2.31.59,4.68-.66,7-.88,2.53-.24,5.21.29,7.62-.74.09,0,.05-.19,0-.16Z"/><path class="cls-6" d="M102.52,16.37c-1.16-.53-2.18.85-2.82,1.61-1.25,1.46-2.54,2.66-4.6,2.47-.14,0-.2.2-.06.24a3.66,3.66,0,0,0,3.29-.78c1.37-1.09,2.18-3.48,4.16-3.42a.06.06,0,0,0,0-.12Z"/><path class="cls-6" d="M104.43,17.79a5.57,5.57,0,0,0-3.9.87,9.81,9.81,0,0,1-5.37,1.65.13.13,0,0,0,0,.26,6.87,6.87,0,0,0,4.4-.9c.7-.36,1.32-.89,2-1.23a9.4,9.4,0,0,1,2.89-.52c.07,0,.06-.12,0-.13Z"/><path class="cls-6" d="M96.84,7.45c-.52,2.15.1,4.37.27,6.53.15,1.88.51,4.86-1.15,6.23-.07.06,0,.17.1.11,1.38-1.16,1.32-3.39,1.26-5-.11-2.56-1-5.29-.41-7.83,0,0-.06,0-.07,0Z"/><path class="cls-6" d="M98.94,10.43c-.87,3.25.13,8-3.25,10.09-.1.05,0,.21.07.15,3.48-2.06,2.47-6.94,3.26-10.22,0,0-.07-.08-.08,0Z"/><path class="cls-6" d="M98.76,16.89A5.21,5.21,0,0,1,96,20.29c-.06,0,0,.12,0,.1a4.74,4.74,0,0,0,2.79-3.5c0-.05-.07-.05-.08,0Z"/><path class="cls-6" d="M102.5,13.26a.55.55,0,0,0-.49.62.56.56,0,0,0,.63.49.55.55,0,0,0,.49-.62A.56.56,0,0,0,102.5,13.26Z"/><path class="cls-6" d="M110.29,15.68a.58.58,0,0,0-.5.63.56.56,0,1,0,.5-.63Z"/><path class="cls-6" d="M103.85,11.52a.27.27,0,0,0-.23.29.27.27,0,1,0,.53-.06A.26.26,0,0,0,103.85,11.52Z"/><path class="cls-6" d="M102,4.39a.27.27,0,1,0,.3.23A.27.27,0,0,0,102,4.39Z"/><path class="cls-6" d="M113.6,8.91a.27.27,0,1,0,.3.23A.27.27,0,0,0,113.6,8.91Z"/><path class="cls-6" d="M106.92,13.66a.27.27,0,0,0-.23.29.27.27,0,1,0,.53-.06A.26.26,0,0,0,106.92,13.66Z"/><path class="cls-6" d="M111.29,21.2a.28.28,0,0,0-.23.3.27.27,0,0,0,.3.23.26.26,0,0,0,.23-.3A.27.27,0,0,0,111.29,21.2Z"/><path class="cls-6" d="M104.1,16.13a.27.27,0,0,0-.23.3.28.28,0,0,0,.3.23.27.27,0,0,0,.23-.3A.26.26,0,0,0,104.1,16.13Z"/><path class="cls-6" d="M112.91,12.2a.27.27,0,0,0-.23.3.26.26,0,0,0,.3.23.27.27,0,0,0,.23-.3A.28.28,0,0,0,112.91,12.2Z"/><path class="cls-7" d="M104.92,26a33.42,33.42,0,0,0,13.44-.06c4.59-1.05,8.56-3.74,12.14-6.7a33,33,0,0,1,5.32-3.37c-6.63.79-13.41,1.61-19.37,4.59C113.37,22,108.21,25,104.92,26"/><path class="cls-6" d="M104.86,26.2a32.66,32.66,0,0,0,13.78-.07,28.89,28.89,0,0,0,10.9-5.77c1-.8,2-1.63,3.1-2.33s2.2-1.3,3.32-1.92c.22-.13.14-.56-.14-.53A88.16,88.16,0,0,0,122,18a34.76,34.76,0,0,0-6.16,2.43c-1.69.87-3.36,1.78-5,2.66-1.94,1-3.91,1.92-5.93,2.73a.14.14,0,0,0,.07.28,20.11,20.11,0,0,0,4.9-1.94c1.78-.88,3.51-1.83,5.26-2.76a42.85,42.85,0,0,1,12.61-4.19c2.68-.48,5.39-.8,8.1-1.1l-.15-.52A33.92,33.92,0,0,0,130.29,19a46.8,46.8,0,0,1-5,3.64A24.85,24.85,0,0,1,113,26.37a40.3,40.3,0,0,1-8-.58c-.26-.05-.38.36-.11.41Z"/><path class="cls-6" d="M135.81,15.84c-10.6,2.83-20.09,8.24-31,9.92-8.84,1.36-17.58.75-26.47.77s-17.48,3.65-24.72,8.71c-.37.26-.07.95.37.74,4.21-2,8.11-4.61,12.52-6.27a39.26,39.26,0,0,1,15.06-2.12c8.54.18,17.06.19,25.48-1.45,10.19-2,19-7.4,28.82-10.25a0,0,0,1,0,0-.05Z"/><path class="cls-6" d="M92.58,47.54c-8.25-1.77-14.32-7.43-21.65-11.15-5.2-2.64-12-4.5-17.31-1.07a.32.32,0,0,0,.28.57C57.76,34.75,61,34,65,35a38.29,38.29,0,0,1,10,4.51c5.65,3.35,11,7,17.56,8.17.11,0,.15-.15,0-.17Z"/><path class="cls-6" d="M60.92,34.54c2.17.51,3.38,2.48,4.85,4a32.13,32.13,0,0,0,5.49,4.3,45.75,45.75,0,0,0,6.12,3.49,18.83,18.83,0,0,0,6.79,1.63c3,.16,5.91.17,8.86.24a.29.29,0,0,0,.15-.54,28.69,28.69,0,0,1-5.48-4.22c-1.86-1.63-3.7-3.3-5.58-4.89a16.41,16.41,0,0,0-5.79-3.21,50.68,50.68,0,0,0-6.87-1.7,23.21,23.21,0,0,0-7.93-.1c-.41.08-.24.69.17.62,4.71-.84,9.53.28,14,1.64a16.08,16.08,0,0,1,6,3.17c1.83,1.54,3.61,3.15,5.41,4.72a29.84,29.84,0,0,0,5.79,4.47l.14-.54c-2.6-.06-5.19-.1-7.79-.18a19.55,19.55,0,0,1-7.47-1.55,46.9,46.9,0,0,1-6.14-3.46A30.91,30.91,0,0,1,66,38c-1.4-1.42-2.78-3.69-5-3.7a.12.12,0,0,0,0,.24Z"/><path class="cls-6" d="M81.78,0c-3.71,6.8-9.52,11.39-13.93,17.58-3.74,5.27-6.32,11-11,15.63-.34.34.18.93.56.63,5.14-4,7.57-10.43,11.16-15.68,4.33-6.33,10-11,13.24-18.13a0,0,0,0,0-.06,0Z"/><path class="cls-6" d="M62.1,27.84c2.59-2.1,5.16-3.9,7.54-6a37.62,37.62,0,0,0,9.87-15.1L81.91,0c-.62,1.75-3,3.52-4.42,4.66C75.35,6.42,73,7.9,70.94,9.76a27.35,27.35,0,0,0-6.42,7.88,16,16,0,0,0-1.56,5c-.25,1.78-.15,3.54-.86,5.24"/><path class="cls-6" d="M114.33,41.77c-9.57-1.56-18.52-5.93-27.67-9C80.43,30.61,72.75,27.26,66,28.84c-.47.12-.29.86.18.83,8-.65,15.46,2.44,22.94,4.88,8.33,2.71,16.39,6.39,25.18,7.29,0,0,.06-.06,0-.07Z"/><path class="cls-6" d="M80.23,30.94c3.08,1.95,5.63,4.78,8.61,6.53,6.06,3.56,13,5.55,19.08,5.11,2-.15,3.81-1.09,6-.83a17.46,17.46,0,0,1-6.07-2.39c-2.58-1.59-5.07-3.35-7.69-4.87a28.68,28.68,0,0,0-9.68-3.71c-3.44-.54-6.89.74-10.25.16"/><path class="cls-7" d="M72.43,26.11c2.75-1.71,6.18-1.75,9.27-2.7,3.8-1.17,10-4.73,12.58-7.74A114.64,114.64,0,0,0,103.92,3c-4,4.67-17.57,9.48-22.48,13.17a44.27,44.27,0,0,0-9,9.94"/><path class="cls-6" d="M72.49,26.21c2.85-1.49,6.05-1.6,9.08-2.48a30.6,30.6,0,0,0,7-3.25,24.86,24.86,0,0,0,6-4.69C96.21,13.91,97.79,12,99.32,10a59.5,59.5,0,0,0,4.86-6.86c.17-.3-.25-.65-.48-.38A20.75,20.75,0,0,1,98.21,6.9c-2.42,1.39-4.94,2.62-7.44,3.85-4.13,2-8.37,3.91-11.75,7.08A48.86,48.86,0,0,0,72.17,26c-.22.32.3.61.53.3,3.09-4.24,6.43-8.53,11-11.22s9.65-4.77,14.34-7.43a22.92,22.92,0,0,0,6.06-4.39l-.48-.37a63.44,63.44,0,0,1-4.2,6c-1.57,2-3.2,4.07-4.87,6a23.69,23.69,0,0,1-5.64,4.72,32.08,32.08,0,0,1-7,3.49c-3.14,1-6.74,1-9.52,2.94a.11.11,0,0,0,.11.2Z"/><path class="cls-6" d="M103.73,3.21C99.78,8,94,11.69,88.86,15.11c-3.36,2.23-7,3.87-10.46,6s-6.1,5.12-9.7,6.67c-.57.25-.26,1.17.32.92,3.41-1.46,6.08-4.2,9.11-6.27,3.58-2.46,7.54-4.28,11.13-6.74,5-3.48,11-7.25,14.66-12.33a.12.12,0,1,0-.19-.16Z"/><path class="cls-7" d="M101.61,28.75c6.11-.16,11.85,2.86,17,6.22s10,7.21,15.86,9.09c-.37-.12-1.74.63-2.16.75-9.86,3-17.65-5.79-24.36-11.53a34.1,34.1,0,0,0-6.3-4.53"/><path class="cls-6" d="M101.61,28.86a30.19,30.19,0,0,1,7,1.28,36.31,36.31,0,0,1,6.58,3.11c4.11,2.39,7.86,5.35,12,7.76a36.4,36.4,0,0,0,7.16,3.33l.15-.55c-.78-.14-1.61.51-2.31.75a12.12,12.12,0,0,1-3.82.61,15.59,15.59,0,0,1-7.1-1.78c-4.45-2.23-8.08-5.77-11.77-9-2.39-2.11-4.87-4.41-7.78-5.78-.28-.13-.52.27-.24.42,4.83,2.77,8.65,6.85,12.91,10.38,3.64,3,7.83,5.87,12.68,6.3a13.55,13.55,0,0,0,4-.23,8.86,8.86,0,0,0,1.74-.5c.4-.17,1.11-.65,1.57-.57a.29.29,0,0,0,.15-.55c-9.24-3.06-16-10.78-25.2-14a17.23,17.23,0,0,0-7.7-1.17.11.11,0,0,0,0,.21Z"/><path class="cls-6" d="M134.19,44.26c-7.74-.7-13.49-5.81-19.67-10A43.4,43.4,0,0,0,95,26.89c-.42-.05-.55.59-.13.65,8.65,1.22,15.93,4.61,23,9.62,5,3.55,10.06,6.84,16.35,7.2.06,0,.07-.1,0-.1Z"/><path class="cls-6" d="M120.87,6.15c-10.85,6.2-18.39,17-30.48,21a.21.21,0,0,0,.09.41C96.61,27,102.16,21.79,106.6,18c4.76-4.08,9.12-8.18,14.46-11.53.19-.12,0-.39-.19-.28Z"/><path class="cls-6" d="M95.46,25.53a57.16,57.16,0,0,0,8.06-2.86A28.51,28.51,0,0,0,112.37,15,62,62,0,0,1,121,6.29c-.75.59-11.46,2.65-20.48,12.06-2.35,2.45-3.23,5.35-5.8,7.65"/><path class="cls-6" d="M46.28,163.68a27.88,27.88,0,0,0,3.21,6.61,21.84,21.84,0,0,0,11,9.21,20.08,20.08,0,0,0,10.32.51c.65-.13.48-.74-.17-.61a18.78,18.78,0,0,1-9-.37,18,18,0,0,1-6.52-3.68,27.64,27.64,0,0,1-6.9-9.63,21.87,21.87,0,0,1-.91-2.32c-.13-.42-1.18-.13-1,.28Z"/><path class="cls-7" d="M47.3,160.86c-.2-2.7,1.48-5.12,2.7-7.54a13.09,13.09,0,0,0,1.59-5.57,7.08,7.08,0,0,0-2-5.3,4.34,4.34,0,0,0-2.8-1.26,3,3,0,0,0-2.66,1.37c-.52.89-.54,2.15-1.43,2.68a1.92,1.92,0,0,1-1.29.19c-.37-.05-.76-.3-1.12-.33-.66-.06-1.3.67-1.47,1.26-.09.33,0,.57-.26.86a1.84,1.84,0,0,1-1,.52,6.37,6.37,0,0,0-1.64.42,2.84,2.84,0,0,0-1.18,2.65,11.08,11.08,0,0,0,1.39,4.7A10.81,10.81,0,0,0,37.79,158a3.78,3.78,0,0,0,2.35,1.42,4,4,0,0,1,1,.05,11.88,11.88,0,0,1,1.55.67"/><path class="cls-6" d="M47.36,160.86A11.89,11.89,0,0,1,49.27,155a20.53,20.53,0,0,0,2.26-5.43c.68-3.16-.33-7.49-3.91-8.42a3.28,3.28,0,0,0-3.78,1.54c-.38.73-.44,1.75-1.11,2.29-1,.8-1.91-.35-2.93,0a2.16,2.16,0,0,0-1.14,1.16c-.25.63-.34,1.21-1.14,1.42a10.44,10.44,0,0,0-1.45.32c-1.45.59-1.68,2.32-1.53,3.7A12.81,12.81,0,0,0,37.37,158a4.83,4.83,0,0,0,2.19,1.65,8.27,8.27,0,0,0,1.31.11,7.81,7.81,0,0,1,1.79.64c.28.11.47-.33.21-.47a5.65,5.65,0,0,0-1.95-.81,7.79,7.79,0,0,1-1.18-.07,3.54,3.54,0,0,1-1.38-.91,12.62,12.62,0,0,1-3-5.16,6.55,6.55,0,0,1-.32-3.07,2.14,2.14,0,0,1,2-1.84,2.63,2.63,0,0,0,1.69-.75,1.4,1.4,0,0,0,.23-.53c.17-.71.51-1.55,1.44-1.44.66.07,1.11.44,1.82.28a1.86,1.86,0,0,0,1.22-.9c.35-.58.44-1.28.74-1.88a2.73,2.73,0,0,1,2.57-1.47c2,.06,3.59,1.84,4.21,3.65a9.12,9.12,0,0,1,0,5.52c-1,3.47-4,6.51-3.73,10.29a.06.06,0,0,0,.11,0Z"/><path class="cls-6" d="M48.46,141.72A15,15,0,0,1,50,151.13c0,.05.08.06.08,0,.52-3.06.2-6.83-1.63-9.44,0,0,0,0,0,0Z"/><path class="cls-6" d="M45.53,141.54A16.38,16.38,0,0,1,47,153.29c0,.05.06.07.08,0a14.71,14.71,0,0,0-1.49-11.8s-.06,0,0,0Z"/><path class="cls-6" d="M43.6,143.94a25.34,25.34,0,0,1,1.57,4.69,23.32,23.32,0,0,1,.38,4.93.06.06,0,0,0,.11,0,17,17,0,0,0-2-9.66s-.08,0-.07,0Z"/><path class="cls-6" d="M41.76,145.61c.72,2.69,1,5.51,2.07,8.1,0,0,.11,0,.09,0-1-2.62-1.26-5.41-2.08-8.07,0,0-.09,0-.08,0Z"/><path class="cls-6" d="M39.5,145.48a27,27,0,0,0,4.82,12.79s.13,0,.09-.06a32.51,32.51,0,0,1-4.86-12.74s0,0,0,0Z"/><path class="cls-6" d="M38,147.58a18.1,18.1,0,0,0,2.36,7.89c0,.05.11,0,.08-.05A27.23,27.23,0,0,1,38,147.57s-.07,0-.06,0Z"/><path class="cls-6" d="M35.62,148.26a12.33,12.33,0,0,0,3.67,7.09s.08,0,.05,0a15.12,15.12,0,0,1-3.63-7.07s-.1,0-.09,0Z"/><path class="cls-7" d="M46.37,163a3.77,3.77,0,0,0-2.53-.35c-2.28.21-4.54.53-6.79.94a13,13,0,0,1-3.82.35A4,4,0,0,1,30.08,162a1.17,1.17,0,0,1-.16-.7,1.26,1.26,0,0,1,.44-.67c.69-.62,2-1.14,2.31-2.08s-.56-2.3-1.07-3a10.24,10.24,0,0,1-1.51-2.48,2.64,2.64,0,0,1-.14-1.11,2.76,2.76,0,0,1,.41-1.06,3,3,0,0,1,1.8-1.43,1.9,1.9,0,0,1,2.07.77c.25.43.3,1,.71,1.29a.84.84,0,0,0,1.17-.31c.08-.16.1-.35.18-.52a1.54,1.54,0,0,1,1-.72,2.61,2.61,0,0,1,1.26-.17,2,2,0,0,1,1,.52,5.09,5.09,0,0,1,1.29,3.39,5,5,0,0,0,.35,1.72,4.16,4.16,0,0,0,.77,1A17.83,17.83,0,0,0,43.68,158a6.68,6.68,0,0,1,1.61,1.33c.28.45.42,1,.71,1.43.42.68.85,1.35,1.28,2"/><path class="cls-6" d="M46.41,162.9c-1.33-.9-3.18-.42-4.66-.25-2.13.25-4.22.69-6.33,1a6.94,6.94,0,0,1-3.14-.13c-1-.34-3-1.62-1.63-2.86.88-.8,2.37-1.24,2.29-2.68s-1.17-2.54-1.89-3.63-1.15-2.14-.44-3.3c.56-.92,1.73-1.74,2.82-1.16.82.45,1.13,2.85,2.57,1.86.3-.2.33-.4.48-.7a1.74,1.74,0,0,1,1.55-.95c1.41-.09,2.06,1.39,2.3,2.54a11.74,11.74,0,0,0,.55,2.95,6.91,6.91,0,0,0,1.89,2.07c.79.68,1.9,1.2,2.41,2.12a35.68,35.68,0,0,0,1.88,3.14c.18.25.58,0,.43-.24-.61-1.06-1.2-2.12-1.79-3.2a5.82,5.82,0,0,0-1.87-1.72,7.16,7.16,0,0,1-2.52-2.7c-.39-1.09-.25-2.29-.64-3.39-.57-1.61-1.92-2.59-3.6-1.93a2,2,0,0,0-.86.54c-.25.31-.52,1.61-1.33.74-.25-.27-.29-.81-.53-1.11a2,2,0,0,0-.72-.57c-1.54-.75-3.2.5-3.78,1.92-.71,1.75.8,3.31,1.71,4.64.47.68,1.21,1.74.91,2.62s-1.41,1.3-2.09,1.86c-1.33,1.1-.19,2.55,1,3.21,2,1.07,4.29.44,6.37.06,1.35-.24,2.71-.44,4.07-.61s3.2-.63,4.48,0c.1,0,.19-.09.09-.15Z"/><path class="cls-6" d="M30.7,150.57c.14,1.2,1.37,2.17,2.21,2.93A20.14,20.14,0,0,0,36.37,156c2.74,1.54,6.23,2.06,8,4.9a.07.07,0,0,0,.13-.07c-1.32-2.52-4.41-3.19-6.77-4.31a19.57,19.57,0,0,1-3.61-2.2c-1.28-1-2.8-2.19-3.38-3.74,0,0-.06,0-.06,0Z"/><path class="cls-6" d="M32.37,149.67a6.43,6.43,0,0,0,2.07,3A22.77,22.77,0,0,0,37.22,155c1.07.79,2.32,1.22,3.44,1.91a14.25,14.25,0,0,1,3.25,2.84c.07.07.16,0,.11-.1a11.63,11.63,0,0,0-2.42-2.33,30.2,30.2,0,0,0-3.25-1.8,16.69,16.69,0,0,1-3.14-2.41c-1.05-1-2.34-2.09-2.78-3.49,0,0-.07,0-.06,0Z"/><path class="cls-6" d="M35.67,151.86a8.9,8.9,0,0,0,3.07,3.06,15.75,15.75,0,0,1,2,1.62,26,26,0,0,1,1.78,2.26s.11,0,.08-.06a10.87,10.87,0,0,0-3-3.34c-1.43-1.07-3-2-3.93-3.56,0,0,0,0,0,0Z"/><path class="cls-6" d="M37.57,150.22a11.33,11.33,0,0,0,2,4.39A11.09,11.09,0,0,0,42.78,158s.06,0,0-.06a13.39,13.39,0,0,1-3.14-3.52,14.55,14.55,0,0,1-2.07-4.2s0,0,0,0Z"/><path class="cls-6" d="M30.76,154.06c1.69,1.76,4,2.66,6.25,3.5,1.26.47,2.56.73,3.84,1.09a7.81,7.81,0,0,1,3.62,2.11.05.05,0,0,0,.08-.06c-1.23-2-4.11-2.3-6.17-2.89A19.09,19.09,0,0,1,30.8,154a0,0,0,1,0,0,0Z"/><path class="cls-6" d="M32.47,157.12c3.07,2.79,7.88,1.15,11.16,3.5.06,0,.14-.06.08-.11-1.14-1.24-3.4-1.38-5-1.59-2.18-.28-4.41-.45-6.2-1.87,0,0-.1,0-.06.07Z"/><path class="cls-6" d="M31.7,159.74a12.52,12.52,0,0,0,5.58.38c1.83-.15,4.35-.77,6,.34a.08.08,0,0,0,.1-.12c-1.13-1.17-3.53-.68-4.94-.55a19.71,19.71,0,0,1-6.68-.15c-.06,0-.09.08,0,.1Z"/><path class="cls-6" d="M30.24,161.08a2.69,2.69,0,0,0,2.33.75,35.32,35.32,0,0,0,3.68-.62c2.59-.46,5.35-1.33,8-.55a.08.08,0,0,0,.06-.14c-1.81-.89-4-.26-5.92.08l-3.79.68c-1.41.26-3,.76-4.24-.26,0,0-.11,0-.07.06Z"/><path class="cls-7" d="M46.86,163.94c2.31-1,1.72-4.92,3.07-6.37s3-2.65,4.1-4.28,1.61-3.95.45-5.55a1.86,1.86,0,0,0-2-.85,3.09,3.09,0,0,0-1.11,1,5.16,5.16,0,0,1-3.14,1.79,11,11,0,0,1-2.86-.19,4.76,4.76,0,0,0-2.8.33,2,2,0,0,0-1,2.4c.36.83,1.41,1.26,1.61,2.14.39,1.65-2.52,2.85-1.92,4.45.45,1.21,2.29,1.07,3.25,1.63a4.84,4.84,0,0,1,2.4,3.51"/><path class="cls-6" d="M46.9,164c1.28-.55,1.72-1.88,2-3.13.17-.67.29-1.35.51-2a5.27,5.27,0,0,1,1.68-2.21c1.52-1.42,3.18-2.81,3.9-4.83.56-1.56.55-3.67-.87-4.79a1.89,1.89,0,0,0-1.75-.4c-.91.31-1.46,1.42-2.23,2a5,5,0,0,1-3.54.78,8.45,8.45,0,0,0-3.71,0,2.26,2.26,0,0,0-1.37,3.41c.53.7,1.6,1.23,1.29,2.26a5.91,5.91,0,0,1-1.26,1.77c-.83,1.06-1.06,2.39.37,3.08.75.36,1.63.38,2.36.79A4.88,4.88,0,0,1,46.53,164a.34.34,0,0,0,.67-.07,4.73,4.73,0,0,0-2.48-3.7c-.94-.54-3.46-.49-3.33-2,.1-1.14,1.49-1.87,1.89-2.91.58-1.45-.81-2-1.43-3.05-.78-1.34.8-2.41,1.94-2.56a20.19,20.19,0,0,1,3.47.25,5.51,5.51,0,0,0,4.44-2.1c.43-.48.87-1,1.59-.74a2.21,2.21,0,0,1,1.24,1.16,4.15,4.15,0,0,1,.17,3c-.58,2-2.2,3.42-3.66,4.82a7.54,7.54,0,0,0-1.7,1.95,8,8,0,0,0-.53,1.75c-.31,1.44-.52,3.28-2,4-.1,0,0,.19.08.15Z"/><path class="cls-7" d="M30,162a3.28,3.28,0,0,0,3.41.88,5.72,5.72,0,0,0,2.9-2.24,6.52,6.52,0,0,1,1.44-1.69,1.52,1.52,0,0,1,2,.15c.25.33.28.79.57,1.1a1.46,1.46,0,0,0,1.48.21,3.73,3.73,0,0,1,2.86.17,4.57,4.57,0,0,1,2.13,3.51,3,3,0,0,0-3.71-1.35c-1.25.49-10.87,3.43-13.09-.74"/><path class="cls-6" d="M30,162a3.33,3.33,0,0,0,3.84.9,5.74,5.74,0,0,0,2.24-1.6c.66-.74,1.12-1.87,2-2.31s1.42,0,1.77.78a1.68,1.68,0,0,0,.48.68,2,2,0,0,0,1.69.12c2.5-.61,4.22,1.13,4.54,3.52l.5-.2a3.38,3.38,0,0,0-4.29-1.4,26,26,0,0,1-3.49.92,18.13,18.13,0,0,1-5.09.4,5.4,5.4,0,0,1-4-2,.2.2,0,0,0-.34.19c1,2.87,5.56,2.57,7.89,2.26a27.52,27.52,0,0,0,4.31-.91c.38-.11.74-.24,1.11-.37a2.77,2.77,0,0,1,3.45,1.19.28.28,0,0,0,.51-.2,4.75,4.75,0,0,0-2.56-3.81,4.14,4.14,0,0,0-2.51-.11c-.78.18-1.38.25-1.79-.65a1.67,1.67,0,0,0-.47-.72c-1.36-1.14-2.76.57-3.46,1.56-1.39,2-4.08,3.67-6.23,1.66-.07-.07-.17,0-.11.11Z"/><path class="cls-6" d="M53.73,147.05a7.61,7.61,0,0,1,.24,3.22,6.59,6.59,0,0,1-.94,2.18c-.87,1.32-2.08,2.37-3.05,3.6a9.32,9.32,0,0,0-1.92,3.67c-.14.63-.2,1.27-.33,1.89a7.61,7.61,0,0,1-1,2.39.12.12,0,0,0,.19.15c1-1,1.13-2.68,1.38-4A10.58,10.58,0,0,1,51,155.3c2.05-2.37,4.13-5,2.8-8.28,0,0-.06,0-.05,0Z"/><path class="cls-6" d="M52,147.22c.91,3.35-2.17,5.91-3.43,8.72-1.16,2.59-1.07,5.39-1.79,8.1a.1.1,0,0,0,.2.05,15.77,15.77,0,0,0,.73-4.32,13,13,0,0,1,1.63-5c1.26-2.27,3.93-4.79,2.73-7.63,0-.05-.08,0-.07,0Z"/><path class="cls-6" d="M49.1,149.61a6.63,6.63,0,0,1-.84,3.75,17.75,17.75,0,0,0-1.09,3.2,14.17,14.17,0,0,0-.28,3.62c0,1.3-.15,2.59-.16,3.88,0,.13.19.17.22,0a15.06,15.06,0,0,0,.25-3.91,14.26,14.26,0,0,1,.43-4.27,25.13,25.13,0,0,1,1.24-3.26,4.47,4.47,0,0,0,.32-3.07,0,0,0,0,0-.09,0Z"/><path class="cls-6" d="M46.59,149.92c.31,2.45-.63,4.76-.63,7.21a14.34,14.34,0,0,0,.3,3.07,7.6,7.6,0,0,1,.16,3.61c0,.12.15.21.21.09a4.12,4.12,0,0,0,.18-2.75,19.29,19.29,0,0,1-.53-3.85,21,21,0,0,1,.47-4.1,6.1,6.1,0,0,0,0-3.31.06.06,0,1,0-.12,0Z"/><path class="cls-6" d="M43.86,149.47c.92,2.37.65,4.8,1,7.27s1.58,4.62,1.54,7.1c0,.13.21.17.23,0,.43-2.35-1-4.62-1.36-6.9-.42-2.51-.07-5.22-1.26-7.56,0-.08-.19,0-.16.06Z"/><path class="cls-6" d="M42,156.77c-.45,1.19,1,2.11,1.8,2.7,1.54,1.15,2.82,2.34,2.78,4.42a.13.13,0,0,0,.25,0,3.67,3.67,0,0,0-1-3.23c-1.18-1.29-3.62-1.94-3.7-3.91a.06.06,0,0,0-.12,0Z"/><path class="cls-6" d="M43.25,154.76a5.56,5.56,0,0,0,1.14,3.84,9.7,9.7,0,0,1,2,5.24.14.14,0,0,0,.27,0,6.83,6.83,0,0,0-1.2-4.32c-.41-.67-1-1.25-1.37-1.93a9.57,9.57,0,0,1-.72-2.84.06.06,0,0,0-.12,0Z"/><path class="cls-6" d="M33.45,163.05c2.18.37,4.35-.4,6.49-.72,1.88-.28,4.82-.84,6.3.71.06.07.17,0,.1-.1-1.25-1.3-3.47-1.09-5.1-.91-2.55.28-5.21,1.33-7.78.95,0,0-.05.06,0,.07Z"/><path class="cls-6" d="M36.28,160.75c3.31.64,7.95-.68,10.29,2.55.06.09.21,0,.15-.09-2.3-3.33-7.1-2-10.42-2.54,0,0-.08.07,0,.08Z"/><path class="cls-6" d="M42.73,160.48A5.19,5.19,0,0,1,46.32,163a.05.05,0,1,0,.09-.05,4.7,4.7,0,0,0-3.67-2.55c-.06,0-.05.07,0,.08Z"/><path class="cls-6" d="M38.85,157a.57.57,0,0,0,.67.44.56.56,0,0,0,.44-.66.57.57,0,1,0-1.11.22Z"/><path class="cls-6" d="M40.74,149.07a.57.57,0,0,0,.66.44.56.56,0,0,0-.21-1.11A.57.57,0,0,0,40.74,149.07Z"/><path class="cls-6" d="M37,155.77a.26.26,0,1,0,.52-.1.26.26,0,0,0-.31-.21A.25.25,0,0,0,37,155.77Z"/><path class="cls-6" d="M30.05,158.13a.25.25,0,0,0,.31.21.26.26,0,0,0,.21-.31.28.28,0,0,0-.31-.21A.26.26,0,0,0,30.05,158.13Z"/><path class="cls-6" d="M33.76,146.22a.25.25,0,0,0,.31.21.26.26,0,1,0-.1-.52A.26.26,0,0,0,33.76,146.22Z"/><path class="cls-6" d="M39,152.56a.27.27,0,0,0,.31.21.26.26,0,0,0,.21-.31.25.25,0,0,0-.31-.21A.26.26,0,0,0,39,152.56Z"/><path class="cls-6" d="M46.18,147.68a.26.26,0,1,0,.52-.1.26.26,0,0,0-.31-.21A.26.26,0,0,0,46.18,147.68Z"/><path class="cls-6" d="M41.61,155.2a.26.26,0,0,0,.31.21.25.25,0,0,0,.21-.31.26.26,0,0,0-.31-.21A.27.27,0,0,0,41.61,155.2Z"/><path class="cls-6" d="M37.09,146.68a.26.26,0,0,0,.31.21.26.26,0,0,0-.1-.52A.26.26,0,0,0,37.09,146.68Z"/><path class="cls-6" d="M19.31,172.84a59.26,59.26,0,0,0,8.24,3.1A97.43,97.43,0,0,0,48.94,180,94.88,94.88,0,0,0,65,179.93c.51-.05.88-.64.15-.57A95.42,95.42,0,0,1,38.61,178a87.93,87.93,0,0,1-15.82-4.53c-.89-.35-1.78-.71-2.64-1.13-.3-.15-1.27.3-.84.51Z"/><path class="cls-7" d="M18.51,170.55c-1.85-1.69-2.26-4.39-3-6.8A12.42,12.42,0,0,0,13.07,159a6.51,6.51,0,0,0-4.71-2.29,4,4,0,0,0-2.69.93,2.76,2.76,0,0,0-.91,2.61c.21.93,1,1.79.74,2.71a1.86,1.86,0,0,1-.75.95c-.29.2-.71.28-1,.48a1.57,1.57,0,0,0-.19,1.79c.15.28.36.39.37.74a1.77,1.77,0,0,1-.33,1,5.78,5.78,0,0,0-.84,1.32,2.63,2.63,0,0,0,.89,2.53A10.3,10.3,0,0,0,7.61,174a10.61,10.61,0,0,0,2.71.65,3.42,3.42,0,0,0,2.48-.54,3.63,3.63,0,0,1,.73-.62A11.27,11.27,0,0,1,15,173"/><path class="cls-6" d="M18.55,170.51a11,11,0,0,1-2.47-5.19,19.21,19.21,0,0,0-1.92-5.09c-1.56-2.56-5-4.83-8-3.18a3,3,0,0,0-1.57,3.44c.21.73.82,1.45.71,2.24-.18,1.18-1.51,1-2,1.87a1.91,1.91,0,0,0,0,1.5c.23.58.53,1,.13,1.68a10.72,10.72,0,0,0-.77,1.13c-.6,1.32.35,2.63,1.32,3.47A12,12,0,0,0,10,175a4.52,4.52,0,0,0,2.52-.29,6.88,6.88,0,0,0,.95-.76,7.47,7.47,0,0,1,1.61-.7c.25-.1.1-.52-.16-.45a5.16,5.16,0,0,0-1.82.69,6.93,6.93,0,0,1-.84.7,3.25,3.25,0,0,1-1.5.27,11.58,11.58,0,0,1-5.27-1.6A6,6,0,0,1,3.36,171a2,2,0,0,1,.16-2.5,2.45,2.45,0,0,0,.67-1.58,1.13,1.13,0,0,0-.19-.5c-.33-.59-.64-1.37.06-1.89.49-.36,1-.41,1.4-1a1.72,1.72,0,0,0,.25-1.38c-.14-.61-.52-1.14-.7-1.74a2.55,2.55,0,0,1,.79-2.62c1.42-1.25,3.59-1,5.16-.22a8.45,8.45,0,0,1,3.49,3.73c1.52,3,1.42,6.94,4,9.29.05,0,.13,0,.08-.07Z"/><path class="cls-6" d="M7.13,156.93a13.94,13.94,0,0,1,7.05,5.33s.08,0,.06,0c-1.6-2.39-4.21-4.73-7.1-5.32,0,0,0,0,0,0Z"/><path class="cls-6" d="M5.05,158.67a15.17,15.17,0,0,1,8.44,7s.09,0,.07,0a13.61,13.61,0,0,0-8.49-7,0,0,0,1,0,0,0Z"/><path class="cls-6" d="M5.28,161.51a23.7,23.7,0,0,1,4,2.17,21.43,21.43,0,0,1,3.39,3.07s.11,0,.07-.07a15.73,15.73,0,0,0-7.47-5.24s-.06.05,0,.07Z"/><path class="cls-6" d="M5.1,163.81c2.19,1.35,4.18,3.06,6.54,4.13,0,0,.08-.06,0-.08-2.32-1.17-4.3-2.84-6.54-4.11a0,0,0,0,0,0,.06Z"/><path class="cls-6" d="M3.49,165.15a25,25,0,0,0,11.37,5.55c.06,0,.09-.08,0-.1a30.24,30.24,0,0,1-11.37-5.48s0,0,0,0Z"/><path class="cls-6" d="M3.8,167.53a16.86,16.86,0,0,0,6.6,3.81s.08-.06,0-.08a25.54,25.54,0,0,1-6.59-3.77s-.06,0,0,0Z"/><path class="cls-6" d="M2.65,169.49a11.42,11.42,0,0,0,7,2.44s0-.06,0-.07a14.09,14.09,0,0,1-6.93-2.44s-.08,0,0,.07Z"/><path class="cls-7" d="M19.23,172.56a3.57,3.57,0,0,0-1.94,1.37q-2.08,2.38-4,4.94A11.92,11.92,0,0,1,11,181.53a3.68,3.68,0,0,1-3.34.72,1.12,1.12,0,0,1-.55-.37,1.14,1.14,0,0,1-.13-.73c.07-.85.61-2,.23-2.86s-1.84-1.2-2.63-1.36a9.53,9.53,0,0,1-2.6-.71,2.55,2.55,0,0,1-.8-.66,2.51,2.51,0,0,1-.39-1,2.81,2.81,0,0,1,.3-2.11A1.75,1.75,0,0,1,3,171.69c.44.14.84.49,1.3.42a.78.78,0,0,0,.59-1c0-.16-.16-.3-.22-.47a1.43,1.43,0,0,1,.2-1.09,2.34,2.34,0,0,1,.73-.91,1.75,1.75,0,0,1,1-.28,4.73,4.73,0,0,1,3,1.46,4.5,4.5,0,0,0,1.33.93,3.7,3.7,0,0,0,1.15.2,16.18,16.18,0,0,0,2.2-.08,6,6,0,0,1,1.93-.12c.47.12.9.38,1.38.51l2.15.55"/><path class="cls-6" d="M19.21,172.48c-1.47.25-2.41,1.74-3.3,2.8-1.27,1.52-2.39,3.14-3.63,4.68a6.59,6.59,0,0,1-2.2,1.9c-.9.42-3,.81-2.91-.89.08-1.1.81-2.34-.16-3.25s-2.41-1-3.57-1.24-2.14-.72-2.4-1.94c-.21-1,.06-2.28,1.16-2.57.83-.23,2.56,1.19,2.91-.39A1.25,1.25,0,0,0,5,170.8a1.61,1.61,0,0,1,.45-1.62c.89-1,2.27-.37,3.16.25a10.83,10.83,0,0,0,2.24,1.64,6.64,6.64,0,0,0,2.59.19,8.71,8.71,0,0,1,3-.11,30.47,30.47,0,0,0,3.27.92.22.22,0,0,0,.13-.43c-1.08-.33-2.16-.67-3.23-1a5.33,5.33,0,0,0-2.35,0,6.48,6.48,0,0,1-3.42-.22c-.95-.48-1.62-1.38-2.58-1.87-1.41-.72-2.94-.52-3.65,1a2,2,0,0,0-.23.91c0,.37.67,1.41-.42,1.34-.34,0-.72-.35-1.07-.41a2,2,0,0,0-.84.07c-1.51.48-1.84,2.38-1.33,3.7.64,1.63,2.64,1.71,4.1,2,.75.17,1.91.41,2.28,1.18s-.13,1.77-.23,2.59c-.2,1.58,1.5,1.83,2.73,1.5,2-.54,3.16-2.42,4.32-4,.76-1,1.54-2,2.35-3s1.75-2.46,3-2.83c.1,0,.07-.18,0-.16Z"/><path class="cls-6" d="M.81,174.17c.85.72,2.3.59,3.35.56a17.6,17.6,0,0,0,3.89-.53c2.83-.7,5.5-2.58,8.51-1.8a.07.07,0,0,0,0-.13c-2.49-.86-5,.65-7.29,1.41a18.41,18.41,0,0,1-3.82.8,8.82,8.82,0,0,1-4.65-.36s-.06,0,0,0Z"/><path class="cls-6" d="M1.36,172.5a5.93,5.93,0,0,0,3.27.68A22.7,22.7,0,0,0,8,173c1.22-.16,2.34-.65,3.53-.91a13,13,0,0,1,4-.15c.09,0,.09-.12,0-.14a11.1,11.1,0,0,0-3.1,0,27.12,27.12,0,0,0-3.33.86,15.39,15.39,0,0,1-3.65.37,8.46,8.46,0,0,1-4.09-.58,0,0,0,1,0,0,0Z"/><path class="cls-6" d="M5,171.88A8.36,8.36,0,0,0,9,172a14.73,14.73,0,0,1,2.39-.2,23.52,23.52,0,0,1,2.63.4c.05,0,.06-.08,0-.1a10.26,10.26,0,0,0-4.12-.35,12.89,12.89,0,0,1-4.91.11s0,0,0,0Z"/><path class="cls-6" d="M5.21,169.57a10.41,10.41,0,0,0,4.17,1.65,10.06,10.06,0,0,0,4.26.26s0,0,0,0a12.23,12.23,0,0,1-4.34-.38,13.32,13.32,0,0,1-4.06-1.51s0,0,0,0Z"/><path class="cls-6" d="M3.06,176.48a14.93,14.93,0,0,0,6.43-1.62c1.15-.48,2.19-1.13,3.28-1.7a7.24,7.24,0,0,1,3.78-.88,0,0,0,0,0,0-.09c-2.13-.6-4.22,1.06-6,2a17.68,17.68,0,0,1-7.5,2.26s0,.06,0,.06Z"/><path class="cls-6" d="M6.16,177.45c3.84-.08,6-4.23,9.73-4.74.07,0,0-.12,0-.12-1.56-.11-3.17,1.23-4.36,2.09-1.65,1.2-3.26,2.5-5.37,2.69,0,0,0,.08,0,.08Z"/><path class="cls-6" d="M7.31,179.7a11.73,11.73,0,0,0,4-3.29c1.14-1.26,2.44-3.28,4.23-3.56a.08.08,0,0,0,0-.15c-1.5-.07-2.8,1.79-3.67,2.78a18.07,18.07,0,0,1-4.59,4.13s0,.11,0,.09Z"/><path class="cls-6" d="M7.18,181.53a2.5,2.5,0,0,0,2-1,32.66,32.66,0,0,0,2.08-2.76c1.45-2,2.76-4.3,5-5.42.07,0,0-.15-.05-.13-1.78.54-2.89,2.4-3.94,3.81l-2.11,2.87c-.78,1.06-1.55,2.42-3,2.52,0,0-.06.07,0,.08Z"/><path class="cls-7" d="M20.17,172.9c.94-2.12-2-4.4-2-6.24a37.15,37.15,0,0,0,.05-5.48c-.28-1.81-1.43-3.68-3.22-4a1.71,1.71,0,0,0-1.89.71,2.7,2.7,0,0,0-.12,1.36,4.84,4.84,0,0,1-1,3.21,11.11,11.11,0,0,1-2,1.69,4.35,4.35,0,0,0-1.68,2,1.87,1.87,0,0,0,.83,2.27c.77.33,1.74-.05,2.44.41,1.31.87.12,3.52,1.53,4.22,1.08.53,2.23-.74,3.23-1a4.47,4.47,0,0,1,3.84.84"/><path class="cls-6" d="M20.25,172.92c.51-1.18,0-2.35-.62-3.4-.31-.55-.66-1.09-.93-1.67a5,5,0,0,1-.28-2.55c.12-1.92.36-3.92-.44-5.73-.61-1.41-2-2.82-3.63-2.67a1.74,1.74,0,0,0-1.43.84c-.41.79-.08,1.88-.26,2.74a4.62,4.62,0,0,1-1.88,2.77,7.74,7.74,0,0,0-2.51,2.35,2.09,2.09,0,0,0,1.25,3.16c.8.13,1.85-.2,2.3.7a5.53,5.53,0,0,1,.28,2c.11,1.25.8,2.29,2.2,1.85.74-.24,1.34-.78,2.09-1a4.49,4.49,0,0,1,3.61.84c.29.2.65-.22.4-.47a4.33,4.33,0,0,0-4-.91c-1,.23-2.64,1.86-3.52.75-.66-.82-.19-2.19-.57-3.15-.54-1.34-1.81-.81-2.9-1.14-1.38-.41-1-2.13-.33-3a19.36,19.36,0,0,1,2.49-2A5.1,5.1,0,0,0,13.22,159c0-.59,0-1.2.6-1.51a2,2,0,0,1,1.57,0,3.8,3.8,0,0,1,2,1.94c.9,1.72.7,3.7.61,5.57a6.79,6.79,0,0,0,.09,2.38,7.09,7.09,0,0,0,.75,1.51c.71,1.18,1.74,2.54,1.22,4,0,.1.11.14.15,0Z"/><path class="cls-7" d="M7.61,182.26a3,3,0,0,0,2.85-1.57,5.3,5.3,0,0,0,.53-3.35,6.18,6.18,0,0,1-.1-2.05c.15-.67.77-1.31,1.44-1.18.38.07.7.36,1.08.38a1.36,1.36,0,0,0,1.14-.79,3.44,3.44,0,0,1,2-1.71,4.21,4.21,0,0,1,3.66,1,2.75,2.75,0,0,0-3.36,1.46c-.53,1.12-5.13,9.2-9.27,7.81"/><path class="cls-6" d="M7.61,182.34a3.08,3.08,0,0,0,3.15-1.83,5.14,5.14,0,0,0,.49-2.5c0-.92-.43-2-.09-2.85s1-.89,1.69-.6a1.51,1.51,0,0,0,.75.15,1.84,1.84,0,0,0,1.21-1c1.29-2,3.56-1.92,5.29-.51l.21-.46a3.13,3.13,0,0,0-3.77,1.78,25.84,25.84,0,0,1-1.76,2.84,16.8,16.8,0,0,1-3.18,3.5,5,5,0,0,1-4,1.21c-.18,0-.28.26-.11.34,2.49,1.3,5.37-1.8,6.74-3.49a25.63,25.63,0,0,0,2.32-3.35c.18-.31.35-.63.52-1a2.55,2.55,0,0,1,3.07-1.39.26.26,0,0,0,.22-.46,4.38,4.38,0,0,0-4.15-.93,3.8,3.8,0,0,0-1.76,1.51c-.41.62-.76,1-1.61.7a1.62,1.62,0,0,0-.77-.19c-1.65.11-1.5,2.14-1.34,3.26.31,2.19-.42,5.05-3.14,5.06-.09,0-.09.13,0,.15Z"/><path class="cls-6" d="M14.06,157.17a7.21,7.21,0,0,1,2.21,2,5.92,5.92,0,0,1,.75,2.07c.25,1.44.11,2.91.24,4.36a8.66,8.66,0,0,0,1,3.69c.3.51.67,1,1,1.48a7.41,7.41,0,0,1,.85,2.24.11.11,0,0,0,.22,0c0-1.36-.94-2.52-1.64-3.6a9.73,9.73,0,0,1-1.25-4.93c-.14-2.9-.39-6-3.38-7.35a0,0,0,0,0,0,0Z"/><path class="cls-6" d="M13,158.41c2.74,1.67,2.29,5.36,3.23,8,.87,2.49,2.7,4.31,3.94,6.59a.1.1,0,0,0,.17-.09,14.62,14.62,0,0,0-2.26-3.37,12,12,0,0,1-2-4.37c-.6-2.33-.41-5.72-3-6.87,0,0-.07,0,0,.07Z"/><path class="cls-6" d="M12.58,161.84a6.14,6.14,0,0,1,1.82,3,16.16,16.16,0,0,0,1.29,2.84,13.32,13.32,0,0,0,2.11,2.62c.85.86,1.54,1.84,2.36,2.71a.1.1,0,0,0,.17-.12A14,14,0,0,0,18,170.16,13.53,13.53,0,0,1,15.59,167a24.91,24.91,0,0,1-1.23-3,4.1,4.1,0,0,0-1.74-2.26s-.08,0,0,.07Z"/><path class="cls-6" d="M11.08,163.64c1.77,1.45,2.6,3.6,4.16,5.25a13.17,13.17,0,0,0,2.15,1.87,7,7,0,0,1,2.4,2.33c.06.1.24,0,.2-.07a3.84,3.84,0,0,0-1.63-2,17.81,17.81,0,0,1-2.8-2.25,19.52,19.52,0,0,1-2.29-3.06,5.63,5.63,0,0,0-2.13-2.2.06.06,0,0,0-.06.1Z"/><path class="cls-6" d="M9,165.07c2.12,1,3.48,2.82,5.28,4.25s4,2.1,5.55,3.79c.08.09.25,0,.18-.12-1.2-1.85-3.6-2.49-5.3-3.78-1.88-1.42-3.36-3.47-5.65-4.28-.08,0-.15.1-.06.14Z"/><path class="cls-6" d="M12.32,171.18c.45,1.09,2,.79,2.93.68,1.76-.21,3.38-.22,4.67,1.2a.12.12,0,0,0,.19-.13,3.37,3.37,0,0,0-2.72-1.52c-1.62-.13-3.67,1-5-.29,0-.05-.11,0-.09.06Z"/><path class="cls-6" d="M11.91,169a5.11,5.11,0,0,0,3.2,1.85,9.08,9.08,0,0,1,4.68,2.25A.12.12,0,0,0,20,173a6.43,6.43,0,0,0-3.56-2.15c-.7-.19-1.45-.22-2.15-.43A8.4,8.4,0,0,1,12,168.93c-.06,0-.12,0-.08.09Z"/><path class="cls-6" d="M10.58,180.82c1.7-1.14,2.68-3,3.92-4.61,1.08-1.38,2.7-3.63,4.68-3.52a.07.07,0,0,0,0-.14c-1.67-.08-3,1.48-4,2.63-1.54,1.81-2.66,4.2-4.63,5.58,0,0,0,.08,0,.06Z"/><path class="cls-6" d="M11,177.47c2.64-1.67,4.92-5.51,8.55-4.82.09,0,.14-.13,0-.15-3.66-.78-6,3.17-8.62,4.9,0,0,0,.1,0,.07Z"/><path class="cls-6" d="M15.2,173.19a4.78,4.78,0,0,1,4-.58c.06,0,.09-.07,0-.1a4.38,4.38,0,0,0-4.09.62s0,.08,0,.06Z"/><path class="cls-6" d="M10.37,173.31a.52.52,0,1,0,.61-.85.52.52,0,0,0-.61.85Z"/><path class="cls-6" d="M6.61,166.78a.52.52,0,1,0-.12-.73A.51.51,0,0,0,6.61,166.78Z"/><path class="cls-6" d="M8.37,173.65a.25.25,0,0,0,.34-.06.25.25,0,0,0-.4-.29A.25.25,0,0,0,8.37,173.65Z"/><path class="cls-6" d="M5.17,179.67a.25.25,0,1,0,.29-.4.25.25,0,0,0-.29.4Z"/><path class="cls-6" d="M.1,169.3a.25.25,0,0,0,.35-.05.26.26,0,0,0-.06-.35.24.24,0,0,0-.34.06A.24.24,0,0,0,.1,169.3Z"/><path class="cls-6" d="M7.62,170.26a.24.24,0,1,0,.29-.39.24.24,0,1,0-.29.39Z"/><path class="cls-6" d="M9.38,162.39a.25.25,0,1,0,.29-.4.25.25,0,0,0-.29.4Z"/><path class="cls-6" d="M11.09,170.35a.24.24,0,0,0,.29-.39.24.24,0,1,0-.29.39Z"/><path class="cls-6" d="M2.64,167.5a.25.25,0,0,0,.34-.06.25.25,0,0,0-.4-.29A.25.25,0,0,0,2.64,167.5Z"/><path class="cls-6" d="M60.13,186.37a33.78,33.78,0,0,0,4.24-.59A36.94,36.94,0,0,0,73.26,183a22.09,22.09,0,0,0,4.82-3.06c.19-.16.09-.32-.1-.39a.89.89,0,0,0-.75.2C73,183.33,67.11,185,61.65,185.63c-.46.06-.92.11-1.38.14s-.87.65-.14.6Z"/><path class="cls-7" d="M57.42,185.36c-2.71,0-5-1.84-7.34-3.22a13.28,13.28,0,0,0-5.44-2,7.1,7.1,0,0,0-5.43,1.63,4.36,4.36,0,0,0-1.45,2.71,3,3,0,0,0,1.18,2.75c.86.58,2.12.69,2.59,1.61a2,2,0,0,1,.09,1.3c-.08.37-.35.74-.41,1.09-.1.66.59,1.35,1.16,1.56.33.11.57,0,.84.31a1.94,1.94,0,0,1,.46,1,6.16,6.16,0,0,0,.3,1.67,2.85,2.85,0,0,0,2.56,1.36,11.12,11.12,0,0,0,4.79-1.07,10.85,10.85,0,0,0,2.62-1.46,3.75,3.75,0,0,0,1.58-2.25,4.46,4.46,0,0,1,.12-1,12.56,12.56,0,0,1,.78-1.5"/><path class="cls-6" d="M57.43,185.3A11.94,11.94,0,0,1,51.66,183a20.09,20.09,0,0,0-5.26-2.63c-3.11-.9-7.5-.19-8.67,3.32A3.28,3.28,0,0,0,39,187.56c.7.42,1.71.55,2.2,1.26.73,1.07-.47,1.88-.19,2.92A2.06,2.06,0,0,0,42.1,193c.6.29,1.17.43,1.32,1.24a12,12,0,0,0,.23,1.46c.48,1.5,2.2,1.84,3.59,1.79a12.81,12.81,0,0,0,6.67-2.38A4.88,4.88,0,0,0,55.7,193a8,8,0,0,0,.2-1.29,7.92,7.92,0,0,1,.76-1.74c.13-.27-.3-.49-.45-.24a5.66,5.66,0,0,0-1,1.88,6.8,6.8,0,0,1-.15,1.18,3.56,3.56,0,0,1-1,1.31,12.58,12.58,0,0,1-5.36,2.59,6.56,6.56,0,0,1-3.08.11A2.15,2.15,0,0,1,44,194.68a2.6,2.6,0,0,0-.62-1.74,1.13,1.13,0,0,0-.51-.26c-.71-.23-1.52-.62-1.35-1.55.12-.64.52-1.08.41-1.79a1.8,1.8,0,0,0-.81-1.27c-.56-.39-1.25-.53-1.83-.88A2.74,2.74,0,0,1,38,184.53c.2-2,2.08-3.46,3.93-3.95a9.12,9.12,0,0,1,5.51.4c3.39,1.24,6.21,4.47,10,4.43.07,0,.08-.11,0-.11Z"/><path class="cls-6" d="M38.4,182.88a15,15,0,0,1,9.5-.93c.05,0,.07-.07,0-.08-3-.72-6.81-.66-9.53,1,0,0,0,0,0,0Z"/><path class="cls-6" d="M38,185.79a16.37,16.37,0,0,1,11.82-.64s.08-.06,0-.08a14.67,14.67,0,0,0-11.87.67,0,0,0,0,0,0,0Z"/><path class="cls-6" d="M40.28,187.88a25.65,25.65,0,0,1,4.8-1.24,23.3,23.3,0,0,1,4.94,0,.06.06,0,0,0,0-.11,17,17,0,0,0-9.78,1.32s0,.09,0,.07Z"/><path class="cls-6" d="M41.83,189.83c2.73-.53,5.56-.63,8.22-1.51.05,0,0-.1,0-.09-2.69.77-5.49.89-8.2,1.53a0,0,0,1,0,0,.07Z"/><path class="cls-6" d="M41.54,192.08a27.06,27.06,0,0,0,13.09-3.92s0-.14-.05-.1a32.4,32.4,0,0,1-13,4,0,0,0,0,0,0,.05Z"/><path class="cls-6" d="M43.53,193.74a18.11,18.11,0,0,0,8-1.81c.06,0,0-.11,0-.08a27.47,27.47,0,0,1-8,1.83s0,.06,0,.06Z"/><path class="cls-6" d="M44,196.14A12.34,12.34,0,0,0,51.37,193s0-.08,0-.05a15.16,15.16,0,0,1-7.3,3.13c-.06,0,0,.1,0,.09Z"/><path class="cls-7" d="M59.46,186.43a3.89,3.89,0,0,0-.53,2.5q.09,3.44.48,6.84a13.3,13.3,0,0,1,.09,3.83,4,4,0,0,1-2.13,3,1.16,1.16,0,0,1-.71.1,1.15,1.15,0,0,1-.63-.48c-.58-.73-1-2.06-1.92-2.45s-2.34.41-3.09.86A10.06,10.06,0,0,1,48.44,202a2.3,2.3,0,0,1-2.14-.42,3.1,3.1,0,0,1-1.31-1.9,1.89,1.89,0,0,1,.92-2c.45-.22,1-.24,1.33-.63a.83.83,0,0,0-.22-1.18c-.16-.09-.35-.13-.51-.21a1.57,1.57,0,0,1-.66-1,2.57,2.57,0,0,1-.08-1.26,2,2,0,0,1,.58-1,5.15,5.15,0,0,1,3.48-1,4.86,4.86,0,0,0,1.74-.24,3.79,3.79,0,0,0,1.06-.69,18.91,18.91,0,0,0,1.69-1.66,6.32,6.32,0,0,1,1.44-1.52c.46-.25,1-.36,1.48-.61l2.1-1.14"/><path class="cls-6" d="M59.39,186.38c-1,1.27-.64,3.15-.56,4.64.1,2.14.39,4.25.54,6.38a7,7,0,0,1-.35,3.12c-.41,1-1.82,2.87-3,1.43-.74-.93-1.06-2.45-2.51-2.46s-2.62,1-3.75,1.63-2.22,1-3.32.22c-.89-.63-1.62-1.86-1-2.9.49-.78,2.91-.93,2-2.44-.17-.31-.37-.35-.67-.52a1.75,1.75,0,0,1-.83-1.62c0-1.41,1.53-2,2.69-2.11a12.33,12.33,0,0,0,3-.35,7.16,7.16,0,0,0,2.2-1.75c.73-.74,1.32-1.81,2.27-2.25a33.52,33.52,0,0,0,3.27-1.67c.26-.15.08-.57-.21-.43-1.1.52-2.2,1-3.31,1.55a5.83,5.83,0,0,0-1.85,1.75,7,7,0,0,1-2.87,2.33c-1.11.32-2.3.09-3.43.4-1.64.46-2.71,1.75-2.17,3.47a2.06,2.06,0,0,0,.49.89c.28.27,1.56.63.64,1.38-.28.23-.83.24-1.15.45a2,2,0,0,0-.61.68c-.85,1.49.28,3.23,1.65,3.9,1.7.84,3.36-.57,4.75-1.38.71-.42,1.81-1.09,2.67-.73s1.2,1.49,1.72,2.21c1,1.41,2.53.37,3.27-.8,1.2-1.91.73-4.24.5-6.35-.15-1.36-.26-2.73-.33-4.09s-.41-3.24.34-4.48c.06-.09-.08-.19-.15-.1Z"/><path class="cls-6" d="M46,201.21c1.21-.06,2.26-1.22,3.08-2a19.73,19.73,0,0,0,2.7-3.27c1.73-2.63,2.48-6.08,5.44-7.67.08,0,0-.17-.06-.13-2.61,1.14-3.49,4.17-4.76,6.46A19.36,19.36,0,0,1,50,198c-1.07,1.21-2.38,2.65-4,3.12,0,0,0,.06,0,.06Z"/><path class="cls-6" d="M45.23,199.48a6.36,6.36,0,0,0,3.09-1.86,23.73,23.73,0,0,0,2.61-2.6c.85-1,1.37-2.23,2.14-3.31a14,14,0,0,1,3-3.05c.08-.06,0-.16-.09-.11a11.59,11.59,0,0,0-2.49,2.25,30.2,30.2,0,0,0-2,3.12,17.21,17.21,0,0,1-2.62,3,9.09,9.09,0,0,1-3.68,2.53s0,.07,0,.06Z"/><path class="cls-6" d="M47.64,196.34a9,9,0,0,0,3.27-2.85,16.65,16.65,0,0,1,1.75-1.91A25.46,25.46,0,0,1,55,190c.05,0,0-.11-.06-.09a11,11,0,0,0-3.53,2.75c-1.17,1.36-2.2,2.84-3.83,3.68,0,0,0,0,0,0Z"/><path class="cls-6" d="M46.13,194.33a11.33,11.33,0,0,0,4.53-1.74,11,11,0,0,0,3.58-2.92s0-.06-.05,0a13.13,13.13,0,0,1-3.73,2.89,14.46,14.46,0,0,1-4.33,1.78,0,0,0,0,0,0,0Z"/><path class="cls-6" d="M49.5,201.39c1.88-1.56,2.92-3.81,3.92-6,.56-1.21.9-2.5,1.36-3.75a7.68,7.68,0,0,1,2.35-3.47.05.05,0,0,0-.06-.08c-2.12,1.09-2.58,3.94-3.31,6a19.2,19.2,0,0,1-4.3,7.3s0,.07,0,0Z"/><path class="cls-6" d="M52.67,199.89c3-2.87,1.69-7.77,4.25-10.89,0-.06,0-.14-.1-.09-1.31,1.06-1.61,3.3-1.92,4.86-.44,2.16-.76,4.37-2.3,6.06,0,0,0,.1.07.06Z"/><path class="cls-6" d="M55.23,200.84A12.7,12.7,0,0,0,56,195.3c0-1.83-.47-4.39.74-5.93a.08.08,0,0,0-.11-.11c-1.25,1-.92,3.47-.88,4.89a19.83,19.83,0,0,1-.62,6.65.05.05,0,0,0,.1,0Z"/><path class="cls-6" d="M56.47,202.39a2.69,2.69,0,0,0,.91-2.27A35.76,35.76,0,0,0,57,196.4c-.28-2.61-1-5.43,0-8,0-.08-.09-.15-.13-.07-1,1.74-.54,4-.34,5.91l.42,3.83c.16,1.42.55,3.06-.55,4.21,0,0,0,.11.06.07Z"/><path class="cls-7" d="M60.46,186c-.81-2.37-4.79-2.06-6.14-3.5s-2.44-3.16-4-4.39-3.82-1.87-5.51-.83a1.87,1.87,0,0,0-1,2,2.94,2.94,0,0,0,.91,1.17,5.19,5.19,0,0,1,1.57,3.26,11.91,11.91,0,0,1-.38,2.84,4.75,4.75,0,0,0,.13,2.82,2,2,0,0,0,2.33,1.2c.85-.3,1.34-1.32,2.23-1.47,1.68-.27,2.68,2.72,4.31,2.24,1.25-.37,1.23-2.22,1.86-3.14A4.84,4.84,0,0,1,60.46,186"/><path class="cls-6" d="M60.54,186c-.46-1.31-1.75-1.85-3-2.25-.65-.21-1.33-.38-2-.65a5.3,5.3,0,0,1-2.09-1.82c-1.31-1.61-2.58-3.37-4.55-4.23-1.51-.66-3.62-.8-4.83.54a1.88,1.88,0,0,0-.52,1.72c.25.93,1.31,1.55,1.79,2.36a5,5,0,0,1,.54,3.59,8.44,8.44,0,0,0-.27,3.7c.38,1.42,1.93,2.49,3.3,1.6.74-.48,1.34-1.52,2.35-1.13A6,6,0,0,1,53,190.77c1,.91,2.31,1.23,3.09-.15.42-.72.5-1.6,1-2.3a4.91,4.91,0,0,1,3.49-2,.34.34,0,0,0,0-.67,4.72,4.72,0,0,0-3.86,2.22c-.61.9-.74,3.41-2.24,3.18-1.13-.17-1.76-1.61-2.77-2.08-1.41-.68-2,.67-3.14,1.21-1.39.69-2.36-1-2.42-2.11a20.06,20.06,0,0,1,.48-3.44,5.49,5.49,0,0,0-1.79-4.58c-.45-.45-.9-.93-.63-1.64a2.24,2.24,0,0,1,1.25-1.15,4.15,4.15,0,0,1,3,0c2,.71,3.27,2.43,4.56,4a7.57,7.57,0,0,0,1.83,1.83,7.76,7.76,0,0,0,1.7.65c1.42.41,3.24.74,3.88,2.27,0,.1.19,0,.15-.08Z"/><path class="cls-7" d="M57.35,202.66a3.29,3.29,0,0,0,1.11-3.35,5.79,5.79,0,0,0-2-3.05,6.34,6.34,0,0,1-1.59-1.55,1.52,1.52,0,0,1,.29-2c.35-.22.81-.22,1.13-.48a1.46,1.46,0,0,0,.32-1.46,3.72,3.72,0,0,1,.37-2.85A4.57,4.57,0,0,1,60.59,186,3,3,0,0,0,59,189.65c.41,1.28,2.68,11.07-1.63,13"/><path class="cls-6" d="M57.4,202.72A3.33,3.33,0,0,0,58.57,199a5.75,5.75,0,0,0-1.44-2.34c-.7-.71-1.79-1.25-2.17-2.2s.11-1.41.91-1.72a1.5,1.5,0,0,0,.7-.43,1.92,1.92,0,0,0,.23-1.67c-.43-2.53,1.43-4.13,3.83-4.28-.05-.18-.11-.35-.16-.53A3.39,3.39,0,0,0,58.78,190a26.61,26.61,0,0,1,.67,3.54,17.93,17.93,0,0,1,0,5.12,5.39,5.39,0,0,1-2.28,3.87.21.21,0,0,0,.17.36c2.93-.8,2.94-5.37,2.8-7.72a29.16,29.16,0,0,0-.62-4.36c-.09-.38-.19-.76-.29-1.14a2.78,2.78,0,0,1,1.42-3.36.28.28,0,0,0-.16-.52,4.76,4.76,0,0,0-4,2.3,4,4,0,0,0-.28,2.49c.12.79.16,1.39-.77,1.74a1.84,1.84,0,0,0-.76.42c-1.22,1.28.38,2.79,1.33,3.56,1.86,1.52,3.37,4.32,1.22,6.33-.08.07,0,.17.1.12Z"/><path class="cls-6" d="M44.08,178a7.49,7.49,0,0,1,3.23,0,6.24,6.24,0,0,1,2.11,1.09c1.26,1,2.23,2.23,3.39,3.29a9.34,9.34,0,0,0,3.53,2.16c.61.18,1.25.29,1.86.46a7.86,7.86,0,0,1,2.32,1.15.12.12,0,0,0,.16-.18c-1-1.1-2.6-1.3-3.94-1.65a10.54,10.54,0,0,1-4.61-3c-2.23-2.2-4.7-4.46-8.07-3.36,0,0,0,.06,0,.06Z"/><path class="cls-6" d="M44.13,179.77c3.41-.68,5.75,2.57,8.47,4,2.51,1.34,5.3,1.44,7.95,2.34a.1.1,0,0,0,.07-.19,15.59,15.59,0,0,0-4.26-1,12.94,12.94,0,0,1-4.83-2c-2.18-1.41-4.51-4.24-7.42-3.25a0,0,0,0,0,0,.08Z"/><path class="cls-6" d="M46.32,182.79A6.72,6.72,0,0,1,50,183.88a17.35,17.35,0,0,0,3.11,1.31,14,14,0,0,0,3.59.53c1.3.06,2.57.33,3.87.43.12,0,.17-.18.05-.22a15,15,0,0,0-3.89-.52,14.49,14.49,0,0,1-4.23-.72,26.69,26.69,0,0,1-3.17-1.46,4.4,4.4,0,0,0-3-.53c-.06,0,0,.09,0,.09Z"/><path class="cls-6" d="M46.45,185.32c2.48-.15,4.71,1,7.16,1.12a14.41,14.41,0,0,0,3.08-.09,7.6,7.6,0,0,1,3.61.09c.12,0,.23-.13.11-.2a4.12,4.12,0,0,0-2.74-.37,19.28,19.28,0,0,1-3.87.26,20.74,20.74,0,0,1-4.06-.75,6.13,6.13,0,0,0-3.31-.19.07.07,0,0,0,0,.13Z"/><path class="cls-6" d="M45.82,188c2.43-.75,4.84-.31,7.32-.5s4.72-1.26,7.19-1.05a.12.12,0,0,0,.05-.23c-2.31-.59-4.68.66-7,.88-2.54.25-5.22-.29-7.63.74-.08,0,0,.19,0,.16Z"/><path class="cls-6" d="M53,190.4c1.16.54,2.18-.85,2.82-1.61,1.25-1.45,2.53-2.65,4.6-2.47.14,0,.19-.2.06-.24a3.64,3.64,0,0,0-3.29.79C55.79,188,55,190.34,53,190.28a.06.06,0,0,0,0,.12Z"/><path class="cls-6" d="M51.06,189a5.57,5.57,0,0,0,3.9-.87,9.7,9.7,0,0,1,5.37-1.64.14.14,0,0,0,0-.27,6.86,6.86,0,0,0-4.39.9c-.7.37-1.32.89-2,1.24a9.28,9.28,0,0,1-2.88.51c-.07,0-.06.12,0,.13Z"/><path class="cls-6" d="M58.65,199.33c.52-2.15-.1-4.38-.27-6.53-.15-1.89-.51-4.86,1.15-6.23.07-.06,0-.17-.1-.11-1.39,1.16-1.33,3.39-1.26,5,.11,2.57,1,5.29.41,7.83,0,0,.06.06.07,0Z"/><path class="cls-6" d="M56.55,196.35c.87-3.26-.13-8,3.25-10.09.09-.06,0-.22-.07-.16-3.49,2.06-2.47,6.94-3.26,10.22,0,.05.06.08.08,0Z"/><path class="cls-6" d="M56.72,189.89a5.25,5.25,0,0,1,2.77-3.41.05.05,0,1,0-.05-.09,4.7,4.7,0,0,0-2.79,3.49c0,.05.06.05.07,0Z"/><path class="cls-6" d="M53,193.52a.56.56,0,0,0,.49-.63.55.55,0,0,0-.62-.49.56.56,0,0,0-.49.63A.55.55,0,0,0,53,193.52Z"/><path class="cls-6" d="M45.2,191.09a.56.56,0,1,0-.14-1.12.57.57,0,0,0-.49.63A.56.56,0,0,0,45.2,191.09Z"/><path class="cls-6" d="M51.63,195.25a.26.26,0,1,0-.06-.52.26.26,0,0,0,.06.52Z"/><path class="cls-6" d="M53.51,202.38a.26.26,0,1,0-.06-.52.25.25,0,0,0-.23.29A.26.26,0,0,0,53.51,202.38Z"/><path class="cls-6" d="M41.89,197.86a.27.27,0,0,0,.23-.29.26.26,0,0,0-.3-.23.25.25,0,0,0-.23.29A.26.26,0,0,0,41.89,197.86Z"/><path class="cls-6" d="M48.56,193.11a.26.26,0,1,0-.06-.52.26.26,0,1,0,.06.52Z"/><path class="cls-6" d="M44.19,185.57a.27.27,0,1,0-.29-.23A.26.26,0,0,0,44.19,185.57Z"/><path class="cls-6" d="M51.39,190.64a.27.27,0,0,0,.23-.29.26.26,0,0,0-.3-.23.25.25,0,0,0-.23.29A.26.26,0,0,0,51.39,190.64Z"/><path class="cls-6" d="M42.57,194.57a.27.27,0,1,0-.29-.23A.27.27,0,0,0,42.57,194.57Z"/><path class="cls-7" d="M50.57,180.78a33.47,33.47,0,0,0-13.45.07c-4.58,1-8.55,3.74-12.13,6.69a33,33,0,0,1-5.32,3.37c6.63-.78,13.4-1.61,19.37-4.59,3.07-1.53,8.23-4.57,11.53-5.54"/><path class="cls-6" d="M50.63,180.57a32.82,32.82,0,0,0-13.78.07,28.93,28.93,0,0,0-10.91,5.77c-1,.8-2,1.63-3.1,2.33s-2.2,1.3-3.31,1.93c-.23.12-.14.56.14.52a88.37,88.37,0,0,0,13.81-2.45,35.37,35.37,0,0,0,6.16-2.43c1.69-.86,3.35-1.78,5-2.65,1.94-1,3.91-1.93,5.93-2.74a.15.15,0,0,0-.08-.28,20.43,20.43,0,0,0-4.9,1.94c-1.77.88-3.51,1.83-5.26,2.76a43,43,0,0,1-12.6,4.2c-2.69.48-5.39.79-8.1,1.09l.14.52a33,33,0,0,0,5.38-3.41,47.83,47.83,0,0,1,5-3.64,24.77,24.77,0,0,1,12.35-3.69,40.35,40.35,0,0,1,8,.58c.26,0,.38-.36.11-.42Z"/><path class="cls-6" d="M19.68,190.94c10.59-2.84,20.09-8.24,31-9.93,8.84-1.36,17.59-.74,26.48-.77s17.47-3.64,24.72-8.71c.37-.26.07-.95-.37-.73-4.21,2-8.12,4.61-12.52,6.27A39.31,39.31,0,0,1,74,179.18c-8.54-.18-17.06-.19-25.48,1.45-10.19,2-19,7.4-28.83,10.25,0,0,0,.07,0,.06Z"/><path class="cls-6" d="M62.91,159.23c8.25,1.77,14.32,7.43,21.65,11.15,5.2,2.64,12,4.51,17.31,1.07.31-.2,0-.66-.29-.56-3.85,1.14-7.13,1.85-11.11.86a37.93,37.93,0,0,1-10-4.52c-5.65-3.35-11-7-17.57-8.17a.09.09,0,0,0,0,.17Z"/><path class="cls-6" d="M94.57,172.24c-2.17-.51-3.38-2.49-4.86-4a32.63,32.63,0,0,0-5.49-4.3,47.37,47.37,0,0,0-6.12-3.49,18.94,18.94,0,0,0-6.79-1.63c-2.94-.16-5.9-.16-8.85-.24a.29.29,0,0,0-.15.54,28.69,28.69,0,0,1,5.48,4.22c1.86,1.63,3.69,3.3,5.58,4.9a16.5,16.5,0,0,0,5.78,3.2A51.23,51.23,0,0,0,86,173.17a23.21,23.21,0,0,0,7.93.09c.4-.07.23-.69-.17-.62-4.71.85-9.53-.28-14-1.64a16.08,16.08,0,0,1-6-3.17c-1.83-1.54-3.61-3.15-5.41-4.72a30.24,30.24,0,0,0-5.79-4.47l-.14.54,7.79.18a19.55,19.55,0,0,1,7.47,1.55,46.9,46.9,0,0,1,6.14,3.46,30.91,30.91,0,0,1,5.66,4.4c1.4,1.43,2.78,3.69,5,3.7a.12.12,0,0,0,0-.23Z"/><path class="cls-6" d="M73.71,206.74c3.7-6.81,9.52-11.39,13.92-17.59,3.75-5.27,6.33-11,11-15.63.33-.33-.18-.92-.56-.63-5.15,4-7.58,10.43-11.17,15.68-4.32,6.34-10,11-13.23,18.14,0,0,0,.06.06,0Z"/><path class="cls-6" d="M93.39,178.93c-2.6,2.1-5.16,3.9-7.54,6A37.59,37.59,0,0,0,76,200l-2.4,6.76c.62-1.74,3-3.52,4.42-4.65,2.13-1.76,4.47-3.25,6.55-5.1A27.26,27.26,0,0,0,91,189.13a16.3,16.3,0,0,0,1.56-5c.25-1.78.14-3.54.86-5.24"/><path class="cls-6" d="M41.16,165c9.56,1.56,18.52,5.94,27.66,9,6.24,2.12,13.92,5.47,20.65,3.89.48-.11.3-.86-.17-.82-8,.64-15.46-2.45-22.94-4.88-8.33-2.72-16.4-6.4-25.19-7.29,0,0-.05.06,0,.06Z"/><path class="cls-6" d="M75.26,175.83c-3.09-2-5.64-4.78-8.61-6.53-6.06-3.56-13-5.55-19.08-5.11-2,.15-3.81,1.09-6,.83a17.46,17.46,0,0,1,6.07,2.39c2.57,1.6,5.07,3.35,7.69,4.87A28.22,28.22,0,0,0,65,176c3.45.54,6.89-.74,10.26-.16"/><path class="cls-7" d="M83.05,180.66c-2.74,1.71-6.17,1.75-9.26,2.7-3.81,1.17-10,4.73-12.58,7.74s-7.64,9.23-9.64,12.67c4-4.66,17.56-9.48,22.48-13.17,2-1.5,5.17-4.49,9-9.94"/><path class="cls-6" d="M83,180.56c-2.84,1.49-6,1.6-9.07,2.48a30.87,30.87,0,0,0-7,3.25,24.61,24.61,0,0,0-6,4.69c-1.64,1.88-3.21,3.81-4.75,5.77a59.89,59.89,0,0,0-4.85,6.87c-.17.29.24.64.48.37a20.5,20.5,0,0,1,5.49-4.11c2.42-1.4,4.93-2.63,7.44-3.86,4.12-2,8.37-3.9,11.75-7.08a49.63,49.63,0,0,0,6.84-8.12c.23-.33-.29-.62-.52-.31-3.1,4.24-6.43,8.53-11,11.23s-9.65,4.76-14.34,7.42a23.14,23.14,0,0,0-6.07,4.39l.49.38a63.58,63.58,0,0,1,4.2-6q2.35-3.07,4.87-6a24.12,24.12,0,0,1,5.63-4.73,32.33,32.33,0,0,1,7-3.48c3.14-1,6.74-1,9.52-3a.12.12,0,0,0-.12-.2Z"/><path class="cls-6" d="M51.75,203.57c4-4.81,9.73-8.49,14.88-11.91,3.36-2.23,7.05-3.87,10.46-6s6.1-5.11,9.7-6.67c.57-.25.25-1.17-.33-.92-3.4,1.46-6.07,4.2-9.1,6.27-3.58,2.46-7.55,4.28-11.13,6.74-5.06,3.48-11.06,7.26-14.67,12.33-.09.13.09.29.19.17Z"/><path class="cls-7" d="M53.88,178c-6.12.16-11.85-2.85-17-6.21s-10-7.22-15.87-9.1c.38.12,1.75-.62,2.17-.75,9.86-3,17.65,5.79,24.36,11.53a33.44,33.44,0,0,0,6.3,4.53"/><path class="cls-6" d="M53.88,177.91a29.59,29.59,0,0,1-7.05-1.28,36.26,36.26,0,0,1-6.58-3.1c-4.11-2.4-7.87-5.35-12-7.77a36.67,36.67,0,0,0-7.16-3.33L21,163c.77.14,1.61-.52,2.31-.76a12.36,12.36,0,0,1,3.82-.61,15.55,15.55,0,0,1,7.09,1.78c4.46,2.23,8.09,5.78,11.78,9,2.38,2.12,4.87,4.41,7.78,5.78.27.13.52-.26.24-.42C49.17,175,45.35,171,41.09,167.44c-3.65-3-7.83-5.88-12.68-6.31a13.64,13.64,0,0,0-4,.23,8.58,8.58,0,0,0-1.73.5c-.4.18-1.11.66-1.57.57A.29.29,0,0,0,21,163c9.24,3,16,10.77,25.2,14a17.35,17.35,0,0,0,7.7,1.18.11.11,0,0,0,0-.22Z"/><path class="cls-6" d="M21.3,162.52c7.74.69,13.49,5.81,19.67,10a43.53,43.53,0,0,0,19.56,7.4c.42.05.55-.59.13-.65-8.65-1.23-15.94-4.61-23-9.63-5-3.55-10-6.84-16.35-7.19-.05,0-.06.09,0,.1Z"/><path class="cls-6" d="M34.62,200.63c10.85-6.21,18.39-17,30.48-21a.21.21,0,0,0-.09-.41c-6.13.55-11.68,5.76-16.13,9.58-4.75,4.08-9.12,8.19-14.45,11.53-.19.12,0,.4.19.29Z"/><path class="cls-6" d="M60,181.24A56,56,0,0,0,52,184.11a28.47,28.47,0,0,0-8.85,7.68,62.58,62.58,0,0,1-8.6,8.7c.74-.6,11.46-2.65,20.48-12.07,2.35-2.45,3.23-5.35,5.8-7.64"/></g></g></svg>